<svg version="1.1" id="Layer_1" xmlns="http://www.w3.org/2000/svg" xmlns:xlink="http://www.w3.org/1999/xlink" x="0px" y="0px"
	 width="36" height="41" viewBox="0 0 500 500" enable-background="new 0 0 500 500" xml:space="preserve">
<path fill="transparent" opacity="1.000000" stroke="none" 
	d="
M501.000000,173.000000 
	C501.000000,282.666626 501.000000,391.833282 501.000000,500.999939 
	C334.333405,500.999939 167.666794,500.999939 1.000148,500.999969 
	C1.000099,334.333435 1.000099,167.666885 1.000049,1.000237 
	C167.666519,1.000158 334.333038,1.000158 500.999786,1.000079 
	C501.000000,58.166668 501.000000,115.333336 501.000000,173.000000 
M360.075165,59.015221 
	C331.743195,59.066986 303.411255,59.118752 274.253448,59.331413 
	C272.992249,59.566299 271.714996,60.064198 270.472809,59.988262 
	C266.222717,59.728458 261.979401,58.893452 257.743561,58.956215 
	C247.155899,59.113094 236.575302,59.908066 225.989090,59.969910 
	C200.023987,60.121605 174.057266,59.981480 148.091431,60.046726 
	C146.377304,60.051033 144.665070,60.795902 142.178406,61.365253 
	C141.577194,61.579914 140.989059,61.929882 140.372864,61.989422 
	C125.390976,63.437061 113.522141,70.878937 103.316040,81.381485 
	C93.903755,91.067146 89.665283,103.665459 85.231255,115.884598 
	C80.005890,130.284454 76.085785,145.156891 71.556343,159.811020 
	C70.342377,163.738571 68.970360,167.617264 67.670898,171.518402 
	C68.060287,171.838715 68.449677,172.159027 68.839066,172.479355 
	C71.061394,171.292068 73.577766,170.451859 75.457115,168.859711 
	C85.676773,160.201782 95.464058,151.012131 105.940117,142.684784 
	C114.859924,135.594498 125.090256,130.596558 136.299347,127.984406 
	C141.136414,126.857178 146.050949,126.062363 151.875565,124.997604 
	C184.471497,124.998322 217.067429,124.979378 249.663330,125.009941 
	C261.797150,125.021324 273.930817,125.148529 285.661194,125.789902 
	C284.065338,127.728210 282.537048,129.727081 280.862396,131.594742 
	C271.789978,141.712997 262.537964,151.674072 253.620834,161.926788 
	C242.045853,175.235474 230.843475,188.868301 219.265121,202.173996 
	C208.301346,214.773376 197.057831,227.129303 185.939453,239.594193 
	C169.438400,258.093689 152.966461,276.619263 136.426132,295.083588 
	C129.509064,302.805267 122.352394,310.313232 115.476929,318.071045 
	C106.486542,328.215240 97.637611,338.485504 88.782272,348.748505 
	C80.404785,358.457672 73.065536,368.908722 68.077408,380.757965 
	C63.621849,391.342072 59.601139,402.118134 55.683277,412.916412 
	C53.288593,419.516571 51.450348,426.318604 49.337856,433.108215 
	C62.494991,431.621094 75.140121,430.191833 88.737381,428.982697 
	C110.800995,428.932220 132.864609,428.881775 155.864639,428.976807 
	C183.684525,428.985291 211.504440,429.029266 239.324265,428.990448 
	C259.638580,428.962097 279.952728,428.824799 301.115265,428.909729 
	C310.632721,427.491821 320.455170,427.113770 329.601532,424.430786 
	C346.538086,419.462555 360.854126,409.446320 373.790833,397.609131 
	C380.583679,391.393555 386.914154,384.672668 394.129395,377.508820 
	C395.859192,387.217560 397.456207,396.181305 399.053253,405.145050 
	C399.791321,405.167053 400.529388,405.189056 401.267426,405.211060 
	C418.722565,359.609070 436.177673,314.007111 454.339478,266.558899 
	C433.788208,272.174377 414.638184,278.737549 395.197174,284.170654 
	C375.436920,289.692993 355.924530,296.102203 336.303558,302.123047 
	C336.231323,302.567871 336.159119,303.012695 336.086884,303.457550 
	C349.449188,307.763763 362.811523,312.069977 376.836517,316.589752 
	C369.032745,329.132812 359.430389,338.659515 348.058197,346.473511 
	C339.435852,352.397980 329.669525,355.861267 319.000519,359.090668 
	C315.585632,359.398834 312.175781,359.889893 308.755035,359.983765 
	C293.376251,360.405853 277.995361,360.781738 262.612823,361.015594 
	C259.038666,361.069946 255.455032,360.502106 250.975555,360.049438 
	C236.391663,360.088928 221.807755,360.128387 206.341797,360.054352 
	C203.612610,360.054352 200.883408,360.054352 197.824753,360.054352 
	C198.564987,359.201172 199.275269,358.352448 200.017059,357.532227 
	C206.659058,350.187927 213.327240,342.867188 219.948257,335.504089 
	C234.592224,319.218842 249.202240,302.903046 263.847717,286.619202 
	C273.311218,276.097015 282.879700,265.668610 292.280975,255.091354 
	C304.416626,241.437683 316.371521,227.623230 328.522278,213.983170 
	C335.886200,205.716675 343.535187,197.704803 350.947083,189.480270 
	C365.465332,173.370361 380.042145,157.309799 394.324768,140.992493 
	C401.652283,132.621094 408.670807,123.944931 415.344757,115.043434 
	C426.287415,100.448387 433.175842,83.685982 439.849213,66.881538 
	C441.409363,62.952888 442.142487,58.695812 443.534515,53.563416 
	C435.450531,55.119415 428.671814,56.408783 421.907318,57.768623 
	C421.543549,57.841743 421.298828,58.506985 420.181183,58.999157 
	C410.736084,59.399628 401.290985,59.800095 391.459412,60.038254 
	C391.459412,60.038254 391.040802,60.016201 390.688782,59.200100 
	C380.793152,59.188885 370.897552,59.177673 360.075165,59.015221 
z"/>
<path fill="#29EE9A" opacity="1.000000" stroke="none" 
	d="
M87.785255,428.762543 
	C75.140121,430.191833 62.494991,431.621094 49.337856,433.108215 
	C51.450348,426.318604 53.288593,419.516571 55.683277,412.916412 
	C59.601139,402.118134 63.621849,391.342072 68.077408,380.757965 
	C73.065536,368.908722 80.404785,358.457672 88.782272,348.748505 
	C97.637611,338.485504 106.486542,328.215240 115.476929,318.071045 
	C122.352394,310.313232 129.509064,302.805267 136.426132,295.083588 
	C152.966461,276.619263 169.438400,258.093689 185.939453,239.594193 
	C197.057831,227.129303 208.301346,214.773376 219.265121,202.173996 
	C230.843475,188.868301 242.045853,175.235474 253.620834,161.926788 
	C262.537964,151.674072 271.789978,141.712997 280.862396,131.594742 
	C282.537048,129.727081 284.065338,127.728210 285.539307,125.218719 
	C283.966522,124.395020 282.515869,123.923378 281.064728,123.921898 
	C239.419785,123.879379 197.774765,123.869148 156.129883,123.933296 
	C154.396088,123.935966 152.663452,124.704712 150.930283,125.116547 
	C146.050949,126.062363 141.136414,126.857178 136.299347,127.984406 
	C125.090256,130.596558 114.859924,135.594498 105.940117,142.684784 
	C95.464058,151.012131 85.676773,160.201782 75.457115,168.859711 
	C73.577766,170.451859 71.061394,171.292068 68.839066,172.479355 
	C68.449677,172.159027 68.060287,171.838715 67.670898,171.518402 
	C68.970360,167.617264 70.342377,163.738571 71.556343,159.811020 
	C76.085785,145.156891 80.005890,130.284454 85.231255,115.884598 
	C89.665283,103.665459 93.903755,91.067146 103.316040,81.381485 
	C113.522141,70.878937 125.390976,63.437061 140.372864,61.989422 
	C140.989059,61.929882 141.577194,61.579914 142.939758,61.463741 
	C145.518738,61.675800 147.337448,61.903126 149.153839,61.885937 
	C177.770981,61.615215 206.387329,61.139412 235.004852,61.056660 
	C284.287231,60.914146 333.570312,61.023785 382.853058,60.973377 
	C385.306488,60.970867 387.759369,60.453835 390.412964,60.107109 
	C390.613434,60.037834 391.040802,60.016201 391.040802,60.016201 
	C391.040802,60.016201 391.459412,60.038254 392.042480,60.297237 
	C402.083252,60.003017 411.540985,59.449810 420.998688,58.896599 
	C421.298828,58.506985 421.543549,57.841743 421.907318,57.768623 
	C428.671814,56.408783 435.450531,55.119415 443.534515,53.563416 
	C442.142487,58.695812 441.409363,62.952888 439.849213,66.881538 
	C433.175842,83.685982 426.287415,100.448387 415.344757,115.043434 
	C408.670807,123.944931 401.652283,132.621094 394.324768,140.992493 
	C380.042145,157.309799 365.465332,173.370361 350.947083,189.480270 
	C343.535187,197.704803 335.886200,205.716675 328.522278,213.983170 
	C316.371521,227.623230 304.416626,241.437683 292.280975,255.091354 
	C282.879700,265.668610 273.311218,276.097015 263.847717,286.619202 
	C249.202240,302.903046 234.592224,319.218842 219.948257,335.504089 
	C213.327240,342.867188 206.659058,350.187927 200.017059,357.532227 
	C199.275269,358.352448 198.564987,359.201172 197.824753,360.054352 
	C200.883408,360.054352 203.612610,360.054352 207.124069,360.293732 
	C221.249313,360.723846 234.592270,360.914581 248.317139,361.261414 
	C249.518860,361.545807 250.340210,361.795105 251.158218,361.784576 
	C270.798950,361.532654 290.440918,361.326141 310.078247,360.906189 
	C313.354797,360.836090 316.610962,359.816071 319.876556,359.234985 
	C329.669525,355.861267 339.435852,352.397980 348.058197,346.473511 
	C359.430389,338.659515 369.032745,329.132812 376.836517,316.589752 
	C362.811523,312.069977 349.449188,307.763763 336.086884,303.457550 
	C336.159119,303.012695 336.231323,302.567871 336.303558,302.123047 
	C355.924530,296.102203 375.436920,289.692993 395.197174,284.170654 
	C414.638184,278.737549 433.788208,272.174377 454.339478,266.558899 
	C436.177673,314.007111 418.722565,359.609070 401.267426,405.211060 
	C400.529388,405.189056 399.791321,405.167053 399.053253,405.145050 
	C397.456207,396.181305 395.859192,387.217560 394.129395,377.508820 
	C386.914154,384.672668 380.583679,391.393555 373.790833,397.609131 
	C360.854126,409.446320 346.538086,419.462555 329.601532,424.430786 
	C320.455170,427.113770 310.632721,427.491821 300.335938,428.559937 
	C286.276245,428.091034 272.995789,427.862488 259.715515,427.873962 
	C224.833694,427.904022 189.951950,428.038635 154.601807,428.036346 
	C133.413254,427.920685 112.693062,427.883118 91.973000,427.917847 
	C90.576614,427.920197 89.181152,428.468292 87.785255,428.762543 
z"/>
<path fill="#66D5AA" opacity="1.000000" stroke="none" 
	d="
M390.212524,60.176384 
	C387.759369,60.453835 385.306488,60.970867 382.853058,60.973377 
	C333.570312,61.023785 284.287231,60.914146 235.004852,61.056660 
	C206.387329,61.139412 177.770981,61.615215 149.153839,61.885937 
	C147.337448,61.903126 145.518738,61.675800 143.326523,61.379265 
	C144.665070,60.795902 146.377304,60.051033 148.091431,60.046726 
	C174.057266,59.981480 200.023987,60.121605 225.989090,59.969910 
	C236.575302,59.908066 247.155899,59.113094 257.743561,58.956215 
	C261.979401,58.893452 266.222717,59.728458 270.472809,59.988262 
	C271.714996,60.064198 272.992249,59.566299 275.006653,59.474701 
	C304.189087,59.677689 332.618317,59.737392 361.513000,59.848801 
	C371.389801,59.992474 380.801178,60.084431 390.212524,60.176384 
z"/>
<path fill="#BBFFFF" opacity="1.000000" stroke="none" 
	d="
M155.070190,428.131561 
	C189.951950,428.038635 224.833694,427.904022 259.715515,427.873962 
	C272.995789,427.862488 286.276245,428.091034 299.911804,428.473145 
	C279.952728,428.824799 259.638580,428.962097 239.324265,428.990448 
	C211.504440,429.029266 183.684525,428.985291 155.420074,428.726685 
	C154.975525,428.476532 155.070190,428.131561 155.070190,428.131561 
z"/>
<path fill="#77DEB4" opacity="1.000000" stroke="none" 
	d="
M151.402924,125.057083 
	C152.663452,124.704712 154.396088,123.935966 156.129883,123.933296 
	C197.774765,123.869148 239.419785,123.879379 281.064728,123.921898 
	C282.515869,123.923378 283.966522,124.395020 285.740967,124.935226 
	C273.930817,125.148529 261.797150,125.021324 249.663330,125.009941 
	C217.067429,124.979378 184.471497,124.998322 151.402924,125.057083 
z"/>
<path fill="#7BD8B3" opacity="1.000000" stroke="none" 
	d="
M319.438538,359.162842 
	C316.610962,359.816071 313.354797,360.836090 310.078247,360.906189 
	C290.440918,361.326141 270.798950,361.532654 251.158218,361.784576 
	C250.340210,361.795105 249.518860,361.545807 248.657471,361.213440 
	C249.702515,360.746399 250.789124,360.483490 251.875748,360.220581 
	C255.455032,360.502106 259.038666,361.069946 262.612823,361.015594 
	C277.995361,360.781738 293.376251,360.405853 308.755035,359.983765 
	C312.175781,359.889893 315.585632,359.398834 319.438538,359.162842 
z"/>
<path fill="#80FFFF" opacity="1.000000" stroke="none" 
	d="
M361.047577,59.797096 
	C332.618317,59.737392 304.189087,59.677689 275.419556,59.394253 
	C303.411255,59.118752 331.743195,59.066986 360.551331,59.248398 
	C361.027496,59.481579 361.047577,59.797096 361.047577,59.797096 
z"/>
<path fill="#FFFFFF" opacity="1.000000" stroke="none" 
	d="
M154.601807,428.036346 
	C155.070190,428.131561 154.975525,428.476532 154.951874,428.653931 
	C132.864609,428.881775 110.800995,428.932220 88.261322,428.872620 
	C89.181152,428.468292 90.576614,427.920197 91.973000,427.917847 
	C112.693062,427.883118 133.413254,427.920685 154.601807,428.036346 
z"/>
<path fill="#8DC8C3" opacity="1.000000" stroke="none" 
	d="
M251.425659,360.135010 
	C250.789124,360.483490 249.702515,360.746399 248.275574,361.057312 
	C234.592270,360.914581 221.249313,360.723846 207.565094,360.350494 
	C221.807755,360.128387 236.391663,360.088928 251.425659,360.135010 
z"/>
<path fill="#66D5AA" opacity="1.000000" stroke="none" 
	d="
M420.589935,58.947884 
	C411.540985,59.449810 402.083252,60.003017 392.235718,60.378395 
	C401.290985,59.800095 410.736084,59.399628 420.589935,58.947884 
z"/>
<path fill="#FFFFFF" opacity="1.000000" stroke="none" 
	d="
M361.513000,59.848804 
	C361.047577,59.797096 361.027496,59.481579 361.014709,59.324020 
	C370.897552,59.177673 380.793152,59.188885 390.864807,59.608150 
	C391.040802,60.016201 390.613434,60.037834 390.412964,60.107109 
	C380.801178,60.084431 371.389801,59.992474 361.513000,59.848804 
z"/>
</svg>