<?xml version="1.0" encoding="UTF-8"?>
<svg version="1.1" xmlns="http://www.w3.org/2000/svg" width="36" height="41">
<path d="M0 0 C-0.49575139 6.9195722 -2.01333105 12.62988303 -4.5625 19.0625 C-4.91965088 19.97789551 -5.27680176 20.89329102 -5.64477539 21.83642578 C-8.9512344 30.15515463 -12.69961053 38.15194346 -17 46 C-17.3304834 46.60972656 -17.6609668 47.21945313 -18.00146484 47.84765625 C-26.552279 63.42013945 -37.883225 77.08407942 -50 90 C-51.34091069 91.49323016 -52.67496199 92.99266724 -54 94.5 C-54.53625 95.1084375 -55.0725 95.716875 -55.625 96.34375 C-57.18483407 98.16384259 -57.18483407 98.16384259 -59 101 C-59.66 101 -60.32 101 -61 101 C-61 101.66 -61 102.32 -61 103 C-61.66 103 -62.32 103 -63 103 C-63.2475 103.556875 -63.495 104.11375 -63.75 104.6875 C-65.22924818 107.42410913 -66.93467439 109.67650869 -69 112 C-69.66 112 -70.32 112 -71 112 C-71.25394531 112.58265625 -71.50789063 113.1653125 -71.76953125 113.765625 C-73.13320333 116.24188033 -74.64225203 117.80520626 -76.6875 119.75 C-79.97480213 122.95482502 -83.03046837 126.25674119 -86.01953125 129.73828125 C-87.99219934 131.99109155 -90.01767491 134.18913388 -92.05566406 136.3828125 C-96.55051372 141.22108204 -100.77562815 146.09646522 -104.66015625 151.453125 C-105.32337891 152.21882813 -105.32337891 152.21882813 -106 153 C-106.66 153 -107.32 153 -108 153 C-108 153.66 -108 154.32 -108 155 C-108.66 155 -109.32 155 -110 155 C-110.21269531 155.53109375 -110.42539062 156.0621875 -110.64453125 156.609375 C-112.52247598 159.92148502 -115.08041823 162.50932368 -117.6875 165.25 C-118.78201327 166.41725351 -119.87576745 167.58521929 -120.96875 168.75390625 C-121.4946875 169.31480957 -122.020625 169.87571289 -122.5625 170.45361328 C-124.86621497 172.9318284 -127.07932331 175.48461939 -129.29296875 178.04296875 C-131.33633431 180.3855915 -133.41680859 182.69273422 -135.5 185 C-138.17048344 187.95869751 -140.82298058 190.92926472 -143.4375 193.9375 C-147.19527494 198.26115163 -151.07824036 202.46854468 -154.9609375 206.6796875 C-157.01577328 208.81946882 -157.01577328 208.81946882 -158 211 C-158.66 211 -159.32 211 -160 211 C-160.27255615 211.59474121 -160.5451123 212.18948242 -160.82592773 212.80224609 C-161.96800049 214.94009989 -163.12292732 216.41611757 -164.78515625 218.1640625 C-165.31560547 218.72867188 -165.84605469 219.29328125 -166.39257812 219.875 C-167.21918945 220.74125 -167.21918945 220.74125 -168.0625 221.625 C-171.96570729 225.49326309 -171.96570729 225.49326309 -175 230 C-175.66 230 -176.32 230 -177 230 C-177.27255615 230.59474121 -177.5451123 231.18948242 -177.82592773 231.80224609 C-178.96800049 233.94009989 -180.12292732 235.41611757 -181.78515625 237.1640625 C-182.31560547 237.72867188 -182.84605469 238.29328125 -183.39257812 238.875 C-184.21918945 239.74125 -184.21918945 239.74125 -185.0625 240.625 C-188.96570729 244.49326309 -188.96570729 244.49326309 -192 249 C-192.66 249 -193.32 249 -194 249 C-194.39638672 249.88945312 -194.39638672 249.88945312 -194.80078125 250.796875 C-196.04370425 253.08029054 -197.30401646 254.47426723 -199.1875 256.25 C-203.88218108 260.80717996 -208.36461829 265.54692744 -212 271 C-212.66 271 -213.32 271 -214 271 C-214.26353271 271.58571777 -214.52706543 272.17143555 -214.79858398 272.77490234 C-216.05102842 275.09450782 -217.40316574 276.70204631 -219.22265625 278.6015625 C-219.84333984 279.25640625 -220.46402344 279.91125 -221.10351562 280.5859375 C-221.74998047 281.25882812 -222.39644531 281.93171875 -223.0625 282.625 C-224.34708135 283.96941814 -225.62973102 285.31568547 -226.91015625 286.6640625 C-227.47871338 287.25654785 -228.04727051 287.8490332 -228.63305664 288.45947266 C-230.09383963 289.97173979 -230.09383963 289.97173979 -231 292 C-231.66 292 -232.32 292 -233 292 C-233.28875 292.598125 -233.5775 293.19625 -233.875 293.8125 C-235 296 -235 296 -237 299 C-237.66 299 -238.32 299 -239 299 C-239.4021875 299.86625 -239.4021875 299.86625 -239.8125 300.75 C-241.01800803 303.03412048 -242.43135523 304.95431531 -244 307 C-229.73455542 306.91582803 -215.46922242 306.82047047 -201.20393753 306.71247292 C-194.57917605 306.66264087 -187.95442951 306.61630999 -181.32958984 306.578125 C-174.9298897 306.54110647 -168.53031867 306.49470229 -162.13072968 306.44193649 C-159.69567899 306.4234803 -157.26060071 306.40834039 -154.82550812 306.39665604 C-151.4007917 306.37964269 -147.97636539 306.35057245 -144.55175781 306.31884766 C-143.55696915 306.31668747 -142.56218048 306.31452728 -141.5372467 306.31230164 C-121.21260949 306.07358349 -100.33597159 300.02800996 -85.63671875 285.46875 C-84 284 -84 284 -82 284 C-82 283.34 -82 282.68 -82 282 C-81.34 282 -80.68 282 -80 282 C-80 281.34 -80 280.68 -80 280 C-79.34 280 -78.68 280 -78 280 C-77.59587891 279.11441406 -77.59587891 279.11441406 -77.18359375 278.2109375 C-76.00610488 276.01140384 -74.74788338 274.45190412 -73.0625 272.625 C-70.4200775 269.6337002 -68.61400753 266.67635049 -67 263 C-68.83304687 262.62875 -68.83304687 262.62875 -70.703125 262.25 C-76.8407608 260.88501287 -82.77495848 258.94241632 -88.75 257 C-90.41482422 256.46632813 -90.41482422 256.46632813 -92.11328125 255.921875 C-96.8057512 254.40853932 -101.43782399 252.87549209 -106 251 C-106 250.01 -106 249.02 -106 248 C-77.59030483 239.07198916 -77.59030483 239.07198916 -65.54296875 235.81152344 C-56.56699381 233.36769353 -47.69262195 230.5846942 -38.80029297 227.85546875 C-34.60149724 226.57276777 -30.3946094 225.31760526 -26.1875 224.0625 C-14.10174282 220.45119321 -2.05187813 216.72248902 10 213 C11.45543361 216.81429826 10.50108606 218.95932038 8.9375 222.62890625 C8.47359863 223.73741943 8.00969727 224.84593262 7.53173828 225.98803711 C7.02626465 227.16760986 6.52079102 228.34718262 6 229.5625 C4.97402308 232.01195872 3.95059543 234.46248675 2.9296875 236.9140625 C2.17510254 238.72245605 2.17510254 238.72245605 1.40527344 240.56738281 C-0.47104845 245.15061521 -2.19872955 249.77803638 -3.875 254.4375 C-5.62327547 259.28230155 -7.40524302 264.07727417 -9.4375 268.8125 C-11.69699399 274.12121402 -13.67129638 279.51102898 -15.625 284.9375 C-23.62671778 307.13693045 -32.1387741 329.13066909 -41 351 C-42.32 351 -43.64 351 -45 351 C-46.32 343.08 -47.64 335.16 -49 327 C-49.66 327 -50.32 327 -51 327 C-51.33 327.66 -51.66 328.32 -52 329 C-52.66 329 -53.32 329 -54 329 C-54.268125 329.598125 -54.53625 330.19625 -54.8125 330.8125 C-55.99917406 332.99847854 -57.09599113 334.41332594 -59 336 C-59.66 336 -60.32 336 -61 336 C-61 336.66 -61 337.32 -61 338 C-61.66 338 -62.32 338 -63 338 C-63 338.66 -63 339.32 -63 340 C-63.66 340 -64.32 340 -65 340 C-65 340.66 -65 341.32 -65 342 C-67.06716781 343.79255136 -69.13980453 345.46868005 -71.3125 347.125 C-71.95405029 347.6185498 -72.59560059 348.11209961 -73.2565918 348.62060547 C-74.5618514 349.62135322 -75.86954717 350.61893171 -77.1796875 351.61328125 C-78.72465449 352.79024108 -80.25465455 353.98680695 -81.78125 355.1875 C-104.87632413 372.86521106 -129.34196144 376.31304711 -157.64477539 376.25537109 C-159.90830613 376.25812579 -162.1718359 376.26180859 -164.43536377 376.26634216 C-169.28658927 376.27441515 -174.13776878 376.27663244 -178.98900032 376.27439499 C-186.67885676 376.27154453 -194.36862261 376.28597921 -202.05845642 376.30337524 C-212.85594383 376.32652153 -223.65342303 376.34565894 -234.45092773 376.35839844 C-235.47600929 376.35961399 -235.47600929 376.35961399 -236.52179956 376.3608541 C-246.20521112 376.37205969 -255.88861694 376.37735415 -265.57203411 376.38024123 C-266.25329948 376.38044522 -266.93456484 376.38064921 -267.63647461 376.38085938 C-268.31689298 376.38105931 -268.99731136 376.38125925 -269.69834847 376.38146524 C-281.10189688 376.38521645 -292.50533809 376.40465293 -303.90884775 376.43595374 C-311.53340102 376.45603293 -319.1576857 376.45860454 -326.78225434 376.44767356 C-331.55133692 376.44504385 -336.32026703 376.45917971 -341.08930969 376.47775459 C-343.27841062 376.48302204 -345.46754061 376.48167485 -347.65662956 376.47271919 C-359.52810315 376.42812098 -370.68188156 377.06163126 -382.2935763 379.69115484 C-389.76995038 381.36663384 -389.76995038 381.36663384 -394 380 C-388.02458384 359.02746092 -381.50793668 338.18840611 -371 319 C-370.46890625 318.0203125 -369.9378125 317.040625 -369.390625 316.03125 C-368.27953634 314.00881896 -367.15435912 311.99792925 -366 310 C-365.34 310 -364.68 310 -364 310 C-363.73832031 309.26523437 -363.47664063 308.53046875 -363.20703125 307.7734375 C-358.96839587 298.03417822 -349.47196084 289.70056664 -342.49462891 281.74023438 C-341.03308319 280.03851959 -339.63209021 278.29800368 -338.23046875 276.546875 C-337.49441406 275.70640625 -336.75835937 274.8659375 -336 274 C-335.34 274 -334.68 274 -334 274 C-333.78472656 273.46503906 -333.56945312 272.93007813 -333.34765625 272.37890625 C-331.5074967 269.13062461 -329.00156955 266.61581027 -326.4375 263.9375 C-322.63648927 259.90062703 -318.96724897 255.83247073 -315.5 251.5 C-311.16471067 246.1005942 -306.50548539 241.05949634 -301.78515625 236 C-299.03403806 233.04928548 -296.36714146 230.03380085 -293.73046875 226.98046875 C-290.81242904 223.64086122 -287.81098948 220.37610035 -284.8203125 217.1015625 C-282.96323333 215.13276579 -282.96323333 215.13276579 -282 213 C-281.34 213 -280.68 213 -280 213 C-280 212.34 -280 211.68 -280 211 C-279.34 211 -278.68 211 -278 211 C-277.77441406 210.45601562 -277.54882812 209.91203125 -277.31640625 209.3515625 C-275.58776213 206.26359881 -273.35449856 203.95545026 -270.9375 201.375 C-267.58466353 197.95790247 -267.58466353 197.95790247 -265 194 C-264.34 194 -263.68 194 -263 194 C-262.78472656 193.46503906 -262.56945312 192.93007812 -262.34765625 192.37890625 C-260.50752633 189.13067692 -258.0017048 186.61564299 -255.4375 183.9375 C-251.52242417 179.7831336 -247.7625114 175.58143663 -244.1875 171.125 C-241.23698393 167.44877352 -238.1788299 164.12120416 -234.79296875 160.8515625 C-232.64659214 158.63504286 -230.74374309 156.28125261 -228.8125 153.875 C-225.31656995 149.53048521 -221.67357253 145.3899102 -217.875 141.3125 C-217.35953613 140.75900879 -216.84407227 140.20551758 -216.31298828 139.63525391 C-215.31989874 138.56942925 -214.32673778 137.50367115 -213.33349609 136.43798828 C-208.37425297 131.09014097 -203.81221448 125.55567728 -199.48046875 119.6875 C-198.99191406 119.130625 -198.50335938 118.57375 -198 118 C-197.34 118 -196.68 118 -196 118 C-196 117.34 -196 116.68 -196 116 C-195.34 116 -194.68 116 -194 116 C-193.7628125 115.45859375 -193.525625 114.9171875 -193.28125 114.359375 C-191.65652243 111.36749863 -189.6498123 108.88840601 -187.5 106.25 C-186.30890625 104.77273437 -186.30890625 104.77273437 -185.09375 103.265625 C-184.4028125 102.51796875 -183.711875 101.7703125 -183 101 C-182.34 101 -181.68 101 -181 101 C-180.7628125 100.45859375 -180.525625 99.9171875 -180.28125 99.359375 C-178.65652243 96.36749863 -176.6498123 93.88840601 -174.5 91.25 C-173.30890625 89.77273437 -173.30890625 89.77273437 -172.09375 88.265625 C-171.4028125 87.51796875 -170.711875 86.7703125 -170 86 C-169.34 86 -168.68 86 -168 86 C-167.74476563 85.43796875 -167.48953125 84.8759375 -167.2265625 84.296875 C-165.84307219 81.70613518 -164.20061417 79.54892155 -162.375 77.25 C-161.74335938 76.45078125 -161.11171875 75.6515625 -160.4609375 74.828125 C-159.73777344 73.92320313 -159.73777344 73.92320313 -159 73 C-176.11651744 72.95314402 -193.23301468 72.91794483 -210.34958172 72.89637566 C-218.29826192 72.88609163 -226.24690212 72.87208667 -234.19555664 72.84912109 C-241.12886023 72.82909877 -248.06213483 72.81626272 -254.99546653 72.81182301 C-258.66183141 72.80923051 -262.32811339 72.80319792 -265.99445152 72.78853989 C-270.10139923 72.77225562 -274.2082056 72.77202594 -278.31518555 72.77294922 C-279.51209518 72.76575867 -280.70900482 72.75856812 -281.94218445 72.75115967 C-311.91218718 72.82363177 -333.10297186 85.74678917 -355 105 C-355.5775 105.60199219 -356.155 106.20398438 -356.75 106.82421875 C-358 108 -358 108 -360 108 C-360 108.66 -360 109.32 -360 110 C-362.49851167 112.51753587 -365.28711509 114.71726621 -368 117 C-368.58136719 117.52980469 -369.16273438 118.05960937 -369.76171875 118.60546875 C-371.3125 120 -371.3125 120 -374 122 C-375.485 121.505 -375.485 121.505 -377 121 C-376.72325439 120.24605957 -376.44650879 119.49211914 -376.16137695 118.71533203 C-369.68958863 101.31639697 -369.68958863 101.31639697 -364.3125 83.5625 C-352.24677158 37.99027552 -352.24677158 37.99027552 -336 24 C-335.34 24 -334.68 24 -334 24 C-334 23.34 -334 22.68 -334 22 C-319.53799504 8.79704017 -300.51702155 6.71033157 -281.890625 6.5859375 C-280.08314214 6.56713791 -278.27566724 6.54755875 -276.46820068 6.5272522 C-271.69174342 6.47597335 -266.91525541 6.4364635 -262.13867188 6.39910889 C-258.37995664 6.36773861 -254.62135696 6.32788044 -250.86272907 6.28752804 C-231.62580898 6.0816662 -212.39033376 5.97670296 -193.15234375 5.99609375 C-165.92800904 6.02304468 -138.70443897 5.92056588 -111.48059654 5.76428604 C-103.55388974 5.71905115 -95.62723501 5.67952015 -87.70043945 5.65356445 C-80.64289171 5.63045095 -73.58548055 5.59699183 -66.52804154 5.55129844 C-62.83705289 5.52771538 -59.1461953 5.50875672 -55.45513344 5.50238609 C-31.09743151 5.51735493 -31.09743151 5.51735493 -7.2804718 0.9004364 C-4 0 -4 0 0 0 Z " fill="#26EF9A" transform="translate(442,52)"/>
<path d="M0 0 C-4.31221388 1.27406319 -8.64414419 2.44617515 -13 3.5625 C-14.4540625 3.93568359 -14.4540625 3.93568359 -15.9375 4.31640625 C-22.95824752 5.88353739 -29.63362037 6.14936817 -36.80609131 6.15148926 C-37.88392986 6.15572167 -38.9617684 6.15995408 -40.07226872 6.16431475 C-43.6780634 6.1773143 -47.28383598 6.1833593 -50.88964844 6.18945312 C-53.47691482 6.19739742 -56.06417987 6.20578552 -58.65144348 6.21458435 C-64.21927102 6.23289758 -69.78709906 6.24775738 -75.35494232 6.26036072 C-83.4083128 6.27868199 -91.46165452 6.30334513 -99.51500216 6.32973462 C-112.58632681 6.37248751 -125.65765937 6.41161393 -138.72900391 6.44775391 C-139.90168327 6.45099811 -139.90168327 6.45099811 -141.09805313 6.45430785 C-147.44351204 6.47183467 -153.78897143 6.48918434 -160.13443089 6.50651073 C-165.6871143 6.52167685 -171.23979753 6.53690845 -176.79248047 6.55224609 C-177.57452503 6.55440496 -178.35656959 6.55656383 -179.16231248 6.55878812 C-192.19047312 6.59487263 -205.21861915 6.63481984 -218.24675965 6.67754889 C-226.2831092 6.70371835 -234.31945427 6.72637414 -242.35582599 6.74453247 C-248.50561592 6.75867405 -254.65538081 6.77779943 -260.80515099 6.79878426 C-263.33238189 6.8065605 -265.85961871 6.81262119 -268.38685799 6.81687737 C-271.82521833 6.82289616 -275.26350573 6.8349306 -278.70184326 6.84851074 C-279.7116493 6.84880673 -280.72145534 6.84910272 -281.76186156 6.84940767 C-282.67965085 6.85426542 -283.59744014 6.85912316 -284.54304123 6.86412811 C-285.33703913 6.86624408 -286.13103704 6.86836005 -286.94909549 6.87054014 C-289.2010775 6.92489552 -289.2010775 6.92489552 -292 8 C-293.72795352 8.06802967 -295.45835365 8.08495645 -297.1875 8.0625 C-298.08855469 8.05347656 -298.98960937 8.04445313 -299.91796875 8.03515625 C-300.60503906 8.02355469 -301.29210937 8.01195312 -302 8 C-302 8.66 -302 9.32 -302 10 C-303.28913487 10.67154933 -304.58140204 11.33708859 -305.875 12 C-306.59429687 12.37125 -307.31359375 12.7425 -308.0546875 13.125 C-310 14 -310 14 -312 14 C-313.67889021 14.63525576 -315.34416775 15.30686092 -317 16 C-317.825 16.268125 -318.65 16.53625 -319.5 16.8125 C-322.66732825 18.31698092 -324.5678268 20.50382225 -327 23 C-327.99 23.33 -328.98 23.66 -330 24 C-330.0825 24.721875 -330.165 25.44375 -330.25 26.1875 C-331.15114559 29.56679596 -332.73166763 31.37724069 -335 34 C-335.33 34.66 -335.66 35.32 -336 36 C-336.99 36 -337.98 36 -339 36 C-339.061875 37.299375 -339.12375 38.59875 -339.1875 39.9375 C-339.68788862 44.69492615 -341.4095128 47.83858934 -343.87109375 51.87109375 C-345.42750181 54.80618854 -345.56831446 57.73152375 -346 61 C-346.66 61.969375 -347.32 62.93875 -348 63.9375 C-349.96101187 66.94029942 -350.25649627 67.87138573 -350.5 71.25 C-350.7475 73.10625 -350.7475 73.10625 -351 75 C-353.0625 76.5 -353.0625 76.5 -355 77 C-353.21558438 57.81753212 -343.34697319 34.06069283 -329 21 C-328.34 21 -327.68 21 -327 21 C-327 20.34 -327 19.68 -327 19 C-312.53799504 5.79704017 -293.51702155 3.71033157 -274.890625 3.5859375 C-273.08314214 3.56713791 -271.27566724 3.54755875 -269.46820068 3.5272522 C-264.69174342 3.47597335 -259.91525541 3.4364635 -255.13867188 3.39910889 C-251.37995664 3.36773861 -247.62135696 3.32788044 -243.86272907 3.28752804 C-224.62580898 3.0816662 -205.39033376 2.97670296 -186.15234375 2.99609375 C-158.92800904 3.02304468 -131.70443897 2.92056588 -104.48059654 2.76428604 C-96.55388974 2.71905115 -88.62723501 2.67952015 -80.70043945 2.65356445 C-73.64289171 2.63045095 -66.58548055 2.59699183 -59.52804154 2.55129844 C-55.83705289 2.52771538 -52.1461953 2.50875672 -48.45513344 2.50238609 C-27.72328703 2.46531857 -27.72328703 2.46531857 -7.24528503 -0.45939636 C-4.30779007 -0.94872795 -2.73740191 -1.04342982 0 0 Z " fill="#67E3B8" transform="translate(435,55)"/>
<path d="M0 0 C1.17639542 -0.0071553 2.35279083 -0.01431061 3.56483459 -0.02168274 C5.51063416 -0.02571609 5.51063416 -0.02571609 7.4957428 -0.02983093 C8.87046481 -0.03609472 10.24518512 -0.04274144 11.61990356 -0.04974365 C15.35953082 -0.06715781 19.0991453 -0.0777059 22.83880305 -0.08594918 C25.17358991 -0.09109702 27.50837277 -0.09717276 29.84315681 -0.10346031 C37.14365943 -0.12251104 44.44415192 -0.13674407 51.74467462 -0.14507228 C60.18076833 -0.1548542 68.61660032 -0.18119883 77.05260175 -0.22157317 C83.56813629 -0.25169 90.08359559 -0.2665368 96.5991984 -0.26985329 C100.493333 -0.27220831 104.38718795 -0.28122701 108.28124809 -0.30631447 C111.94290186 -0.329524 115.60409043 -0.33385763 119.26579857 -0.32355309 C121.25360964 -0.32281843 123.24139673 -0.34195836 125.22911072 -0.36161804 C126.40832596 -0.35467422 127.5875412 -0.34773041 128.80249023 -0.34057617 C129.82953536 -0.34296453 130.85658049 -0.34535288 131.91474819 -0.34781361 C134.46473694 0.14717102 134.46473694 0.14717102 136.31862736 2.17765522 C136.69684352 2.82759543 137.07505968 3.47753565 137.46473694 4.14717102 C134.57273654 7.84250486 132.68934476 10.10770518 128.46473694 12.14717102 C127.3312316 14.16386929 127.3312316 14.16386929 126.46473694 16.14717102 C125.80473694 16.47717102 125.14473694 16.80717102 124.46473694 17.14717102 C124.13473694 18.13717102 123.80473694 19.12717102 123.46473694 20.14717102 C122.47473694 20.14717102 121.48473694 20.14717102 120.46473694 20.14717102 C120.46473694 21.46717102 120.46473694 22.78717102 120.46473694 24.14717102 C117.49473694 24.64217102 117.49473694 24.64217102 114.46473694 25.14717102 C115.41517067 23.80819519 116.37532841 22.47611675 117.33973694 21.14717102 C117.87340881 20.40467102 118.40708069 19.66217102 118.95692444 18.89717102 C119.45450256 18.31967102 119.95208069 17.74217102 120.46473694 17.14717102 C121.12473694 17.14717102 121.78473694 17.14717102 122.46473694 17.14717102 C122.71997131 16.58513977 122.97520569 16.02310852 123.23817444 15.44404602 C124.62166475 12.8533062 126.26412277 10.69609257 128.08973694 8.39717102 C128.72137756 7.59795227 129.35301819 6.79873352 130.00379944 5.97529602 C130.48590881 5.37201477 130.96801819 4.76873352 131.46473694 4.14717102 C114.3482195 4.10031504 97.23172226 4.06511585 80.11515522 4.04354668 C72.16647502 4.03326265 64.21783481 4.01925769 56.2691803 3.99629211 C49.33587671 3.97626979 42.40260211 3.96343374 35.46927041 3.95899403 C31.80290553 3.95640153 28.13662355 3.95036894 24.47028542 3.93571091 C20.3633377 3.91942664 16.25653134 3.91919696 12.14955139 3.92012024 C10.95264175 3.91292969 9.75573212 3.90573914 8.52255249 3.89833069 C-13.15745831 3.95075631 -32.07622313 10.34387507 -49.53526306 23.14717102 C-48.83213806 18.37373352 -48.83213806 18.37373352 -46.16026306 16.33467102 C-43.53526306 15.14717102 -43.53526306 15.14717102 -40.53526306 15.14717102 C-40.53526306 14.48717102 -40.53526306 13.82717102 -40.53526306 13.14717102 C-37.44716611 11.38254419 -36.3021417 11.14717102 -32.53526306 11.14717102 C-32.20526306 10.15717102 -31.87526306 9.16717102 -31.53526306 8.14717102 C-29.67979431 7.23310852 -29.67979431 7.23310852 -27.34776306 6.52217102 C-26.54080994 6.27596008 -25.73385681 6.02974915 -24.90245056 5.77607727 C-22.13222703 5.04009379 -19.37810499 4.51163793 -16.53526306 4.14717102 C-16.53526306 3.48717102 -16.53526306 2.82717102 -16.53526306 2.14717102 C-15.5955365 2.05629211 -15.5955365 2.05629211 -14.63682556 1.96357727 C-13.81955994 1.87978821 -13.00229431 1.79599915 -12.16026306 1.70967102 C-11.34815369 1.62846008 -10.53604431 1.54724915 -9.69932556 1.46357727 C-6.19590272 0.95134397 -3.70955084 0.01544092 0 0 Z " fill="#50E1A5" transform="translate(151.53526306152344,120.85282897949219)"/>
<path d="M0 0 C0 0.33 0 0.66 0 1 C-12.22508593 3.31147726 -24.25018763 3.28062902 -36.64477539 3.25537109 C-38.90830613 3.25812579 -41.1718359 3.26180859 -43.43536377 3.26634216 C-48.28658927 3.27441515 -53.13776878 3.27663244 -57.98900032 3.27439499 C-65.67885676 3.27154453 -73.36862261 3.28597921 -81.05845642 3.30337524 C-91.85594383 3.32652153 -102.65342303 3.34565894 -113.45092773 3.35839844 C-114.13431544 3.35920881 -114.81770314 3.36001918 -115.52179956 3.3608541 C-125.20521112 3.37205969 -134.88861694 3.37735415 -144.57203411 3.38024123 C-145.25329948 3.38044522 -145.93456484 3.38064921 -146.63647461 3.38085938 C-147.31689298 3.38105931 -147.99731136 3.38125925 -148.69834847 3.38146524 C-160.10189688 3.38521645 -171.50533809 3.40465293 -182.90884775 3.43595374 C-190.53340102 3.45603293 -198.1576857 3.45860454 -205.78225434 3.44767356 C-210.55133692 3.44504385 -215.32026703 3.45917971 -220.08930969 3.47775459 C-222.27841062 3.48302204 -224.46754061 3.48167485 -226.65662956 3.47271919 C-238.52810315 3.42812098 -249.68188156 4.06163126 -261.2935763 6.69115484 C-268.76995038 8.36663384 -268.76995038 8.36663384 -273 7 C-272.34 5.68 -271.68 4.36 -271 3 C-270.67 3.66 -270.34 4.32 -270 5 C-267.24968307 4.52259783 -264.49975 4.04314736 -261.75 3.5625 C-260.97269531 3.42779297 -260.19539063 3.29308594 -259.39453125 3.15429688 C-258.64042969 3.02216797 -257.88632812 2.89003906 -257.109375 2.75390625 C-256.41811523 2.63345947 -255.72685547 2.5130127 -255.01464844 2.38891602 C-253.01115358 2.02906482 -253.01115358 2.02906482 -251.12257707 1.48435932 C-247.48522655 0.65433781 -243.76334307 0.84602264 -240.04922485 0.84178162 C-238.6769324 0.83437465 -238.6769324 0.83437465 -237.27691686 0.82681805 C-234.20365605 0.81143094 -231.13041617 0.80307846 -228.05712891 0.79467773 C-225.85580766 0.78509871 -223.65448825 0.77508862 -221.45317078 0.76467896 C-215.46246391 0.73759056 -209.47174916 0.71659301 -203.48101473 0.69667697 C-197.1985409 0.6747843 -190.91609103 0.64739882 -184.63363647 0.62062073 C-174.06306017 0.5763211 -163.49247471 0.53551958 -152.921875 0.49731445 C-142.08950733 0.45815482 -131.25715213 0.41673114 -120.42480469 0.37231445 C-119.76024646 0.36959018 -119.09568822 0.36686591 -118.41099186 0.36405908 C-115.07389493 0.35036846 -111.73679813 0.33664777 -108.39970136 0.32291877 C-88.45592289 0.2411438 -68.51213468 0.16141138 -48.56832314 0.08810806 C-46.42318357 0.08018157 -44.27804447 0.07212481 -42.13290596 0.06391716 C-28.08853427 0.01039298 -14.04447225 -0.00938562 0 0 Z " fill="#99E5CF" transform="translate(321,425)"/>
<path d="M0 0 C0.99 0.495 0.99 0.495 2 1 C0.5640435 5.99129266 -1.5689369 10.02046325 -4.3125 14.375 C-4.96303345 15.41068115 -4.96303345 15.41068115 -5.62670898 16.46728516 C-13.20326183 28.23764446 -22.55658991 38.70981239 -32 49 C-33.3177136 50.47452404 -34.63054991 51.95342731 -35.9375 53.4375 C-36.75541016 54.36369141 -36.75541016 54.36369141 -37.58984375 55.30859375 C-39.18122039 57.15617506 -39.18122039 57.15617506 -41 60 C-41.66 60 -42.32 60 -43 60 C-43 60.66 -43 61.32 -43 62 C-43.66 62 -44.32 62 -45 62 C-45.2475 62.556875 -45.495 63.11375 -45.75 63.6875 C-47.22924818 66.42410913 -48.93467439 68.67650869 -51 71 C-51.66 71 -52.32 71 -53 71 C-53.25394531 71.58265625 -53.50789063 72.1653125 -53.76953125 72.765625 C-55.13320333 75.24188033 -56.64225203 76.80520626 -58.6875 78.75 C-61.97480213 81.95482502 -65.03046837 85.25674119 -68.01953125 88.73828125 C-69.99219934 90.99109155 -72.01767491 93.18913388 -74.05566406 95.3828125 C-78.55051372 100.22108204 -82.77562815 105.09646522 -86.66015625 110.453125 C-87.10230469 110.96359375 -87.54445313 111.4740625 -88 112 C-88.66 112 -89.32 112 -90 112 C-90 112.66 -90 113.32 -90 114 C-90.66 114 -91.32 114 -92 114 C-92.31904297 114.79664063 -92.31904297 114.79664063 -92.64453125 115.609375 C-94.52247598 118.92148502 -97.08041823 121.50932368 -99.6875 124.25 C-100.78201327 125.41725351 -101.87576745 126.58521929 -102.96875 127.75390625 C-103.4946875 128.31480957 -104.020625 128.87571289 -104.5625 129.45361328 C-106.85678841 131.9216878 -109.06128015 134.46362705 -111.265625 137.01171875 C-114.79167065 141.05396478 -118.40364278 145.02035755 -122 149 C-122.625 147.1875 -122.625 147.1875 -123 145 C-122.34 144.01 -121.68 143.02 -121 142 C-120.34 142 -119.68 142 -119 142 C-119 141.34 -119 140.68 -119 140 C-118.34 140 -117.68 140 -117 140 C-116.505 138.02 -116.505 138.02 -116 136 C-115.01 136 -114.02 136 -113 136 C-112.731875 135.360625 -112.46375 134.72125 -112.1875 134.0625 C-111 132 -111 132 -108 131 C-107.87625 130.401875 -107.7525 129.80375 -107.625 129.1875 C-107 127 -107 127 -104.5 125.0625 C-101.78439848 123.21388522 -101.78439848 123.21388522 -101.1875 120.25 C-101.125625 119.5075 -101.06375 118.765 -101 118 C-99.68 118 -98.36 118 -97 118 C-96.505 116.515 -96.505 116.515 -96 115 C-95.01 115 -94.02 115 -93 115 C-92.67 113.68 -92.34 112.36 -92 111 C-91.01 111 -90.02 111 -89 111 C-88.9175 110.05125 -88.835 109.1025 -88.75 108.125 C-88.5025 107.09375 -88.255 106.0625 -88 105 C-86 103.8125 -86 103.8125 -84 103 C-83.505 101.515 -83.505 101.515 -83 100 C-80.9375 99.3125 -80.9375 99.3125 -79 99 C-79 98.01 -79 97.02 -79 96 C-77.02 95.505 -77.02 95.505 -75 95 C-75 93.68 -75 92.36 -75 91 C-74.01 91 -73.02 91 -72 91 C-71.34 89.68 -70.68 88.36 -70 87 C-69.34 87 -68.68 87 -68 87 C-67.87625 86.401875 -67.7525 85.80375 -67.625 85.1875 C-67 83 -67 83 -65 80 C-64.34 80 -63.68 80 -63 80 C-63 79.01 -63 78.02 -63 77 C-62.01 77 -61.02 77 -60 77 C-60 76.01 -60 75.02 -60 74 C-58.36935236 72.94228261 -56.69719127 71.94726954 -55 71 C-53.14397385 69.72840348 -53.14397385 69.72840348 -52 68 C-51.83312552 65.41645782 -51.83312552 65.41645782 -52 63 C-51 62 -51 62 -48.4375 61.9375 C-47.633125 61.958125 -46.82875 61.97875 -46 62 C-45.67 61.01 -45.34 60.02 -45 59 C-44.34 59 -43.68 59 -43 59 C-43 57.68 -43 56.36 -43 55 C-41.68 54.34 -40.36 53.68 -39 53 C-39 52.34 -39 51.68 -39 51 C-37.68 51 -36.36 51 -35 51 C-34.9175 50.236875 -34.835 49.47375 -34.75 48.6875 C-33.84730645 45.45284809 -32.86406539 44.64900735 -30 43 C-29.34 43 -28.68 43 -28 43 C-28.0825 42.236875 -28.165 41.47375 -28.25 40.6875 C-28 38 -28 38 -26.125 36.1875 C-24 35 -24 35 -22 35 C-22 34.01 -22 33.02 -22 32 C-21.01 31.505 -21.01 31.505 -20 31 C-19.505 29.515 -19.505 29.515 -19 28 C-18.34 28 -17.68 28 -17 28 C-17 27.34 -17 26.68 -17 26 C-16.01 26 -15.02 26 -14 26 C-14 25.01 -14 24.02 -14 23 C-13.34 23 -12.68 23 -12 23 C-11.938125 21.948125 -11.87625 20.89625 -11.8125 19.8125 C-10.8489033 15.29100781 -9.32254868 14.07943536 -6 11 C-5.28837557 9.35202764 -4.60968047 7.68834592 -4 6 C-3.34 5.67 -2.68 5.34 -2 5 C-1.27840576 3.35636866 -0.60648579 1.68949614 0 0 Z " fill="#60DFAA" transform="translate(424,93)"/>
<path d="M0 0 C1.1707608 0.0001133 1.1707608 0.0001133 2.36517334 0.00022888 C3.19760559 0.00539017 4.03003784 0.01055145 4.88769531 0.01586914 C5.74768127 0.01728409 6.60766724 0.01869904 7.49371338 0.02015686 C10.2344514 0.02574442 12.97510707 0.03829465 15.71582031 0.05102539 C17.57649621 0.056042 19.4371734 0.06060462 21.29785156 0.06469727 C25.85387277 0.07570978 30.40983259 0.09296588 34.96582031 0.11352539 C34.96582031 0.44352539 34.96582031 0.77352539 34.96582031 1.11352539 C34.0727417 1.13858154 33.17966309 1.1636377 32.25952148 1.18945312 C28.94396577 1.28462725 25.62858302 1.38385822 22.31323242 1.48583984 C20.87871028 1.52913332 19.44413847 1.57081238 18.00952148 1.61083984 C15.94662511 1.66867806 13.88397748 1.73233292 11.82128906 1.79711914 C9.95960083 1.85210571 9.95960083 1.85210571 8.06030273 1.90820312 C4.93028684 1.9849666 4.93028684 1.9849666 1.96582031 3.11352539 C0.2378668 3.18155506 -1.49253334 3.19848184 -3.22167969 3.17602539 C-4.12273437 3.16700195 -5.02378906 3.15797852 -5.95214844 3.14868164 C-6.63921875 3.13708008 -7.32628906 3.12547852 -8.03417969 3.11352539 C-8.03417969 3.77352539 -8.03417969 4.43352539 -8.03417969 5.11352539 C-9.32331456 5.78507472 -10.61558173 6.45061398 -11.90917969 7.11352539 C-12.62847656 7.48477539 -13.34777344 7.85602539 -14.08886719 8.23852539 C-16.03417969 9.11352539 -16.03417969 9.11352539 -18.03417969 9.11352539 C-19.7130699 9.74878115 -21.37834744 10.42038631 -23.03417969 11.11352539 C-23.85917969 11.38165039 -24.68417969 11.64977539 -25.53417969 11.92602539 C-28.70150794 13.43050631 -30.60200649 15.61734764 -33.03417969 18.11352539 C-34.02417969 18.44352539 -35.01417969 18.77352539 -36.03417969 19.11352539 C-36.11667969 19.83540039 -36.19917969 20.55727539 -36.28417969 21.30102539 C-37.18532528 24.68032135 -38.76584731 26.49076608 -41.03417969 29.11352539 C-41.36417969 29.77352539 -41.69417969 30.43352539 -42.03417969 31.11352539 C-43.02417969 31.11352539 -44.01417969 31.11352539 -45.03417969 31.11352539 C-45.09605469 32.41290039 -45.15792969 33.71227539 -45.22167969 35.05102539 C-45.72206831 39.80845154 -47.44369249 42.95211473 -49.90527344 46.98461914 C-51.4616815 49.91971393 -51.60249415 52.84504914 -52.03417969 56.11352539 C-52.69417969 57.08290039 -53.35417969 58.05227539 -54.03417969 59.05102539 C-55.99519155 62.05382481 -56.29067596 62.98491112 -56.53417969 66.36352539 C-56.78167969 68.21977539 -56.78167969 68.21977539 -57.03417969 70.11352539 C-59.09667969 71.61352539 -59.09667969 71.61352539 -61.03417969 72.11352539 C-59.24976407 52.93105751 -49.38115287 29.17421822 -35.03417969 16.11352539 C-34.37417969 16.11352539 -33.71417969 16.11352539 -33.03417969 16.11352539 C-33.03417969 15.45352539 -33.03417969 14.79352539 -33.03417969 14.11352539 C-24.92931666 6.7142622 -11.1830734 -0.03630868 0 0 Z " fill="#6BE3B0" transform="translate(141.0341796875,59.886474609375)"/>
<path d="M0 0 C0.99 0 1.98 0 3 0 C3 0.66 3 1.32 3 2 C2.34 2 1.68 2 1 2 C0.5978125 2.86625 0.5978125 2.86625 0.1875 3.75 C-1.01800803 6.03412048 -2.43135523 7.95431531 -4 10 C10.26540045 9.89238857 24.53075099 9.77950402 38.79606247 9.66066074 C45.42082901 9.60562197 52.04560009 9.55223368 58.67041016 9.50268555 C65.07006682 9.45475952 71.46967371 9.40240885 77.86927032 9.34705925 C80.30433148 9.32676291 82.73940621 9.30802995 85.17449188 9.29092598 C88.5991249 9.26659782 92.02366638 9.2365856 95.44824219 9.20532227 C96.44303085 9.1995668 97.43781952 9.19381134 98.4627533 9.18788147 C105.34528052 9.11699863 112.14891388 8.65313094 119 8 C119 8.66 119 9.32 119 10 C112.7203965 12.23677789 106.90529838 12.27084453 100.28149414 12.22705078 C99.11979706 12.22734283 97.95809998 12.22763489 96.76119995 12.22793579 C92.93577508 12.22654664 89.11054694 12.21100467 85.28515625 12.1953125 C82.62714813 12.1915809 79.9691508 12.18863619 77.31114197 12.18673706 C71.03917361 12.18053468 64.76727544 12.16414079 58.4953379 12.14403808 C51.35142781 12.12164029 44.20751427 12.11067592 37.06357777 12.10064721 C22.37568271 12.07977338 7.68784258 12.0446217 -7 12 C-7 10.68 -7 9.36 -7 8 C-6.34 8 -5.68 8 -5 8 C-4.67 6.35 -4.34 4.7 -4 3 C-2.68 3 -1.36 3 0 3 C0 2.01 0 1.02 0 0 Z " fill="#68D4AB" transform="translate(202,349)"/>
<path d="M0 0 C0.66 0 1.32 0 2 0 C-0.18067409 7.94300145 -3.08106048 15.502923 -6.1875 23.125 C-6.65091797 24.27226562 -7.11433594 25.41953125 -7.59179688 26.6015625 C-8.72391166 29.40267125 -9.86004534 32.20207482 -11 35 C-12.32 35 -13.64 35 -15 35 C-15.11593506 34.29915283 -15.23187012 33.59830566 -15.35131836 32.8762207 C-15.8791866 29.68817089 -16.40833053 26.50033408 -16.9375 23.3125 C-17.11990234 22.20970703 -17.30230469 21.10691406 -17.49023438 19.97070312 C-17.66748047 18.90400391 -17.84472656 17.83730469 -18.02734375 16.73828125 C-18.18968506 15.75899658 -18.35202637 14.77971191 -18.51928711 13.77075195 C-18.97043414 11.1704129 -19.46974671 8.5852427 -20 6 C-18.02 4.68 -16.04 3.36 -14 2 C-14.09539062 2.73863281 -14.19078125 3.47726562 -14.2890625 4.23828125 C-15.06504486 11.33942215 -15.30596556 18.14092897 -13 25 C-11.52524024 26.78461628 -11.52524024 26.78461628 -10 28 C-9.87625 26.783125 -9.7525 25.56625 -9.625 24.3125 C-9.21108694 20.93520941 -8.45426549 18.10243305 -7 15 C-6.34 15 -5.68 15 -5 15 C-5.061875 14.34 -5.12375 13.68 -5.1875 13 C-4.93182247 8.90915946 -3.54304956 5.79333016 -2 2 C-1.34 2 -0.68 2 0 2 C0 1.34 0 0.68 0 0 Z " fill="#6EDFAF" transform="translate(412,368)"/>
<path d="M0 0 C-0.97582031 0.83144531 -1.95164063 1.66289062 -2.95703125 2.51953125 C-4.24224382 3.61712155 -5.52739697 4.71478145 -6.8125 5.8125 C-7.77639648 6.63331055 -7.77639648 6.63331055 -8.75976562 7.47070312 C-9.38173828 8.00244141 -10.00371094 8.53417969 -10.64453125 9.08203125 C-11.50075073 9.81256714 -11.50075073 9.81256714 -12.37426758 10.55786133 C-14.03981688 11.9919705 -14.03981688 11.9919705 -15.5847168 13.68237305 C-17 15 -17 15 -19 15 C-19 15.66 -19 16.32 -19 17 C-21.49851167 19.51753587 -24.28711509 21.71726621 -27 24 C-27.58136719 24.52980469 -28.16273437 25.05960938 -28.76171875 25.60546875 C-30.3125 27 -30.3125 27 -33 29 C-33.99 28.67 -34.98 28.34 -36 28 C-33.36 20.74 -30.72 13.48 -28 6 C-27.08159233 9.67363066 -26.50452219 13.25212088 -26 17 C-23.49034386 16.29660434 -23.49034386 16.29660434 -21 15 C-20.11306697 12.95894361 -20.11306697 12.95894361 -20 11 C-18.68 11 -17.36 11 -16 11 C-16.33 9.68 -16.66 8.36 -17 7 C-13.535 6.505 -13.535 6.505 -10 6 C-10.33 5.01 -10.66 4.02 -11 3 C-4.33333333 -1.44444444 -4.33333333 -1.44444444 0 0 Z " fill="#58E2A8" transform="translate(101,145)"/>
<path d="M0 0 C0.33 0 0.66 0 1 0 C1.39141851 3.42491198 1.13357065 4.79010327 -0.75 7.75 C-2.96883223 9.96883223 -3.94602429 10.67278832 -7 11 C-7.33 12.32 -7.66 13.64 -8 15 C-8.66 15 -9.32 15 -10 15 C-10 15.66 -10 16.32 -10 17 C-11.03125 17.66 -12.0625 18.32 -13.125 19 C-17.892991 22.24339917 -20.60538573 26.8248263 -23 32 C-23 32.99 -23 33.98 -23 35 C-23.9075 35.2475 -24.815 35.495 -25.75 35.75 C-29.10351489 37.03981342 -30.67708236 38.31971042 -33 41 C-33.99 40.67 -34.98 40.34 -36 40 C-35.61779297 39.59797363 -35.23558594 39.19594727 -34.84179688 38.78173828 C-28.06147127 31.63220722 -21.36172244 24.55969414 -15.453125 16.66015625 C-14.73382813 15.83837891 -14.73382813 15.83837891 -14 15 C-13.34 15 -12.68 15 -12 15 C-12 14.34 -12 13.68 -12 13 C-11.34 13 -10.68 13 -10 13 C-9.75378906 12.43796875 -9.50757813 11.8759375 -9.25390625 11.296875 C-7.77902576 8.59522475 -5.99568351 6.53604048 -3.9375 4.25 C-3.22464844 3.45078125 -2.51179688 2.6515625 -1.77734375 1.828125 C-1.19082031 1.22484375 -0.60429687 0.6215625 0 0 Z " fill="#60E3AB" transform="translate(174,250)"/>
<path d="M0 0 C1.32 0.33 2.64 0.66 4 1 C-8.95928162 11.86263359 -24.59992234 23.48694977 -42 25 C-42.33 24.01 -42.66 23.02 -43 22 C-35.46201031 19.27072787 -27.85428897 17.57532681 -20 16 C-20 15.34 -20 14.68 -20 14 C-19.01 14 -18.02 14 -17 14 C-17 13.34 -17 12.68 -17 12 C-14.06938726 9.31360498 -11.86151126 7.8274667 -8 7 C-7.67 6.34 -7.34 5.68 -7 5 C-6.01 5 -5.02 5 -4 5 C-3.67 4.01 -3.34 3.02 -3 2 C-2.01 2 -1.02 2 0 2 C0 1.34 0 0.68 0 0 Z " fill="#71E2B6" transform="translate(364,400)"/>
<path d="M0 0 C1.12085999 0.00007553 2.24171997 0.00015106 3.39654541 0.00022888 C4.60083191 0.00539017 5.80511841 0.01055145 7.04589844 0.01586914 C8.28321716 0.01728409 9.52053589 0.01869904 10.79534912 0.02015686 C14.07672285 0.0248043 17.35804717 0.03378192 20.6394043 0.04486084 C23.99104355 0.05511019 27.34268492 0.0595768 30.69433594 0.06469727 C37.26466775 0.07572514 43.83496655 0.09246243 50.40527344 0.11352539 C50.40527344 0.44352539 50.40527344 0.77352539 50.40527344 1.11352539 C49.18759277 1.12810791 47.96991211 1.14269043 46.71533203 1.15771484 C11.7723587 1.32863111 11.7723587 1.32863111 -22.63671875 6.76757812 C-25.15376645 7.2122984 -27.17449427 6.89424548 -29.59472656 6.11352539 C-28.93472656 4.79352539 -28.27472656 3.47352539 -27.59472656 2.11352539 C-27.26472656 2.77352539 -26.93472656 3.43352539 -26.59472656 4.11352539 C-23.84440963 3.63612322 -21.09447656 3.15667275 -18.34472656 2.67602539 C-17.56742188 2.54131836 -16.79011719 2.40661133 -15.98925781 2.26782227 C-15.23515625 2.13569336 -14.48105469 2.00356445 -13.70410156 1.86743164 C-13.0128418 1.74698486 -12.32158203 1.62653809 -11.609375 1.50244141 C-9.62031796 1.15068827 -9.62031796 1.15068827 -7.81848145 0.59631348 C-5.15891001 0.01890748 -2.72241135 -0.00613156 0 0 Z " fill="#58D09D" transform="translate(77.5947265625,425.886474609375)"/>
<path d="M0 0 C4.29 0.33 8.58 0.66 13 1 C13 1.66 13 2.32 13 3 C13.969375 3.103125 14.93875 3.20625 15.9375 3.3125 C20.48593839 3.94629879 24.69417104 5.44755827 29 7 C29 9.31 29 11.62 29 14 C28.34 14 27.68 14 27 14 C26.9071875 14.8353125 26.9071875 14.8353125 26.8125 15.6875 C25.66587721 18.95096487 23.48044843 20.64054906 21 23 C20.34 23.99 19.68 24.98 19 26 C18.01 26 17.02 26 16 26 C17.31913538 23.10926313 18.78743667 20.955603 20.9375 18.625 C23.5799225 15.6337002 25.38599247 12.67635049 27 9 C25.71222656 8.73445313 24.42445313 8.46890625 23.09765625 8.1953125 C18.08736139 7.08191364 13.28669215 5.54328174 8.4375 3.875 C7.61958984 3.59785156 6.80167969 3.32070313 5.95898438 3.03515625 C3.97123432 2.36094863 1.98540651 1.68107796 0 1 C0 0.67 0 0.34 0 0 Z " fill="#6CDFB1" transform="translate(348,306)"/>
<path d="M0 0 C-0.33 0.99 -0.66 1.98 -1 3 C-2.98 3 -4.96 3 -7 3 C-7 3.66 -7 4.32 -7 5 C-8.41538717 5.33872513 -9.83237963 5.67074624 -11.25 6 C-12.03890625 6.185625 -12.8278125 6.37125 -13.640625 6.5625 C-16 7 -16 7 -20 7 C-20 7.66 -20 8.32 -20 9 C-24.17737474 10.59138085 -27.53160785 11.21278058 -32 11 C-32 11.66 -32 12.32 -32 13 C-37.324335 15.32086397 -41.43842552 14.91457003 -47 14 C-44.02670826 12.40212027 -41.13238762 11.36541798 -37.88671875 10.44921875 C-36.8925293 10.16506104 -35.89833984 9.88090332 -34.87402344 9.58813477 C-33.8224707 9.29092529 -32.77091797 8.99371582 -31.6875 8.6875 C-23.31255396 6.29331136 -15.03634766 3.7617627 -6.828125 0.84765625 C-4 0 -4 0 0 0 Z " fill="#6CDEAE" transform="translate(439,270)"/>
<path d="M0 0 C1.6875 2 1.6875 2 3 4 C0.1079996 7.69533384 -1.77539218 9.96053416 -6 12 C-7.13350534 14.01669827 -7.13350534 14.01669827 -8 16 C-8.66 16.33 -9.32 16.66 -10 17 C-10.33 17.99 -10.66 18.98 -11 20 C-11.99 20 -12.98 20 -14 20 C-14 21.32 -14 22.64 -14 24 C-15.98 24.33 -17.96 24.66 -20 25 C-19.04956626 23.66102417 -18.08940853 22.32894573 -17.125 21 C-16.59132813 20.2575 -16.05765625 19.515 -15.5078125 18.75 C-15.01023437 18.1725 -14.51265625 17.595 -14 17 C-13.34 17 -12.68 17 -12 17 C-11.7421875 16.43796875 -11.484375 15.8759375 -11.21875 15.296875 C-9.85830223 12.73295421 -8.27211038 10.54773635 -6.5 8.25 C-5.8915625 7.45078125 -5.283125 6.6515625 -4.65625 5.828125 C-4.1096875 5.22484375 -3.563125 4.6215625 -3 4 C-2.34 4 -1.68 4 -1 4 C-1 3.34 -1 2.68 -1 2 C-10.24 2 -19.48 2 -29 2 C-29 1.67 -29 1.34 -29 1 C-24.72920293 0.8323954 -20.45835675 0.66607641 -16.1875 0.5 C-14.97255859 0.45230469 -13.75761719 0.40460938 -12.50585938 0.35546875 C-11.34248047 0.31035156 -10.17910156 0.26523438 -8.98046875 0.21875 C-7.90692139 0.17685547 -6.83337402 0.13496094 -5.72729492 0.09179688 C-3.81903204 0.02756746 -1.90934351 0 0 0 Z " fill="#48E1A1" transform="translate(286,121)"/>
<path d="M0 0 C0.75 1.6875 0.75 1.6875 1 4 C-0.8125 6.5 -0.8125 6.5 -3 9 C-3.68177416 10.32567199 -4.35191436 11.65753688 -5 13 C-5.66 13.66 -6.32 14.32 -7 15 C-8.26096611 16.72706579 -9.4703872 18.48523284 -10.68359375 20.24609375 C-12.01303279 22.01736416 -13.33020264 23.5439367 -15 25 C-15.66 25 -16.32 25 -17 25 C-17.103125 25.680625 -17.20625 26.36125 -17.3125 27.0625 C-18.14725019 30.62915989 -19.49472754 33.66222194 -21 37 C-21.99 37 -22.98 37 -24 37 C-22.65135873 32.50902459 -20.85935169 28.67388743 -18.5 24.625 C-17.8915625 23.56539063 -17.283125 22.50578125 -16.65625 21.4140625 C-16.1096875 20.61742187 -15.563125 19.82078125 -15 19 C-14.34 19 -13.68 19 -13 19 C-12.75121094 18.27941406 -12.50242187 17.55882812 -12.24609375 16.81640625 C-10.87871659 13.72587668 -9.21740011 11.53381354 -7.0625 8.9375 C-4.64156747 6.00070521 -2.25778826 3.06464676 0 0 Z " fill="#59E3AA" transform="translate(91,343)"/>
<path d="M0 0 C1.81051555 0.02515281 3.62106536 0.04795347 5.43164062 0.06835938 C9.80946104 0.12271348 14.18558717 0.20858469 18.5625 0.3125 C18.5625 0.6425 18.5625 0.9725 18.5625 1.3125 C17.66942139 1.33755615 16.77634277 1.3626123 15.85620117 1.38842773 C12.54064546 1.48360186 9.22526271 1.58283283 5.90991211 1.68481445 C4.47538997 1.72810793 3.04081816 1.76978699 1.60620117 1.80981445 C-0.4566952 1.86765267 -2.51934283 1.93130753 -4.58203125 1.99609375 C-6.44371948 2.05108032 -6.44371948 2.05108032 -8.34301758 2.10717773 C-11.47303347 2.18394121 -11.47303347 2.18394121 -14.4375 3.3125 C-16.16545352 3.38052967 -17.89585365 3.39745645 -19.625 3.375 C-20.52605469 3.36597656 -21.42710937 3.35695312 -22.35546875 3.34765625 C-23.04253906 3.33605469 -23.72960937 3.32445312 -24.4375 3.3125 C-24.4375 3.9725 -24.4375 4.6325 -24.4375 5.3125 C-25.72663487 5.98404933 -27.01890204 6.64958859 -28.3125 7.3125 C-29.03179687 7.68375 -29.75109375 8.055 -30.4921875 8.4375 C-33.44286777 9.76471362 -35.40385787 9.12147123 -38.4375 8.3125 C-29.96970858 -1.95678912 -11.81139496 -0.2890939 0 0 Z " fill="#4AE0A2" transform="translate(157.4375,59.6875)"/>
<path d="M0 0 C0.66 0.33 1.32 0.66 2 1 C0.55601139 6.05786282 -1.64747648 10.10065857 -4.4375 14.5 C-5.08706665 15.53253906 -5.08706665 15.53253906 -5.74975586 16.5859375 C-10.34416786 23.75194057 -15.44602454 30.54892143 -21 37 C-21.33 37 -21.66 37 -22 37 C-22 35.35 -22 33.7 -22 32 C-21.34 31.67 -20.68 31.34 -20 31 C-19.67 30.01 -19.34 29.02 -19 28 C-18.34 28 -17.68 28 -17 28 C-17 27.34 -17 26.68 -17 26 C-16.01 26 -15.02 26 -14 26 C-14 25.01 -14 24.02 -14 23 C-13.34 23 -12.68 23 -12 23 C-11.9071875 21.4221875 -11.9071875 21.4221875 -11.8125 19.8125 C-10.8489033 15.29100781 -9.32254868 14.07943536 -6 11 C-5.28837557 9.35202764 -4.60968047 7.68834592 -4 6 C-3.34 5.67 -2.68 5.34 -2 5 C-1.27840576 3.35636866 -0.60648579 1.68949614 0 0 Z " fill="#6AE0AF" transform="translate(424,93)"/>
<path d="M0 0 C0 0.33 0 0.66 0 1 C-1.23363281 1.16435547 -1.23363281 1.16435547 -2.4921875 1.33203125 C-19.43084126 3.73786775 -34.16098492 9.85138894 -48 20 C-47.296875 15.2265625 -47.296875 15.2265625 -44.625 13.1875 C-42 12 -42 12 -39 12 C-39 11.34 -39 10.68 -39 10 C-35.91190305 8.23537317 -34.76687864 8 -31 8 C-30.67 7.01 -30.34 6.02 -30 5 C-28.1796875 4.12109375 -28.1796875 4.12109375 -25.875 3.4375 C-25.05128906 3.19257812 -24.22757813 2.94765625 -23.37890625 2.6953125 C-22.59386719 2.46585937 -21.80882812 2.23640625 -21 2 C-19.948125 1.608125 -18.89625 1.21625 -17.8125 0.8125 C-11.90721101 -0.44600421 -6.01470659 -0.15015911 0 0 Z " fill="#69DCAF" transform="translate(150,124)"/>
<path d="M0 0 C0.99 0 1.98 0 3 0 C0.46523431 11.69448716 0.46523431 11.69448716 -2.125 15.75 C-3.89224726 18.81322859 -4.24865726 19.96724784 -4.5 23.3125 C-4.665 24.529375 -4.83 25.74625 -5 27 C-7.0625 28.5 -7.0625 28.5 -9 29 C-8.0569321 18.86202007 -4.42496327 9.10883397 0 0 Z " fill="#53E4A5" transform="translate(89,103)"/>
<path d="M0 0 C0 3.39124746 -0.71969391 4.65853816 -2.375 7.5625 C-2.81585938 8.34753906 -3.25671875 9.13257813 -3.7109375 9.94140625 C-5 12 -5 12 -7 14 C-7.33 14.66 -7.66 15.32 -8 16 C-8.61875 16.268125 -9.2375 16.53625 -9.875 16.8125 C-12.66454589 18.37136388 -13.42841765 20.24973089 -15 23 C-16.9375 25.375 -16.9375 25.375 -19 27 C-21.12890625 26.6015625 -21.12890625 26.6015625 -23 26 C-22.23816406 25.18917969 -21.47632812 24.37835938 -20.69140625 23.54296875 C-14.80711015 17.24464922 -9.12636304 10.87968124 -3.7421875 4.14453125 C-2 2 -2 2 0 0 Z " fill="#48E2A1" transform="translate(133,296)"/>
<path d="M0 0 C0.66 0 1.32 0 2 0 C1.67 0.99 1.34 1.98 1 3 C0.34 3 -0.32 3 -1 3 C-1.165 3.845625 -1.33 4.69125 -1.5 5.5625 C-3.59953493 10.37393421 -6.90055157 12.84780276 -11 16 C-11.825 16.639375 -12.65 17.27875 -13.5 17.9375 C-17.11471283 19.47375295 -20.09143145 19.19874077 -24 19 C-21.29981907 16.93372159 -18.5444286 15.0295339 -15.6875 13.1875 C-11.98384442 10.74895449 -8.66801056 8.10525796 -5.41015625 5.1015625 C-4 4 -4 4 -2 4 C-2 3.34 -2 2.68 -2 2 C-1.34 2 -0.68 2 0 2 C0 1.34 0 0.68 0 0 Z " fill="#54E4A9" transform="translate(362,332)"/>
<path d="M0 0 C0.33 1.32 0.66 2.64 1 4 C0.54109375 4.35191406 0.0821875 4.70382813 -0.390625 5.06640625 C-3.69390294 7.72429585 -6.23187412 10.0112031 -8.1875 13.8125 C-10 17 -10 17 -12.25 17.9375 C-12.8275 17.958125 -13.405 17.97875 -14 18 C-14 19.32 -14 20.64 -14 22 C-14.639375 22.103125 -15.27875 22.20625 -15.9375 22.3125 C-16.9584375 22.6528125 -16.9584375 22.6528125 -18 23 C-18.33 23.99 -18.66 24.98 -19 26 C-21.0625 26.6875 -21.0625 26.6875 -23 27 C-20.62483518 22.61570603 -17.65523935 19.26973782 -14.25 15.6875 C-13.17497999 14.54111544 -12.10075875 13.3939813 -11.02734375 12.24609375 C-10.24979736 11.41634033 -10.24979736 11.41634033 -9.45654297 10.56982422 C-6.97730134 7.89776192 -4.58893287 5.14922639 -2.20703125 2.390625 C-1.49611889 1.57158034 -0.76688674 0.76688674 0 0 Z " fill="#56E0A9" transform="translate(223,195)"/>
<path d="M0 0 C1.32 0 2.64 0 4 0 C2.62742119 6.72563615 0.11822748 12.88315883 -2.46875 19.2109375 C-4.45806894 24.08773802 -6.24510453 29.03467812 -8 34 C-8.87840996 30.90279155 -8.99435406 29.09354597 -8 26 C-7.34 26 -6.68 26 -6 26 C-5.95101563 25.14535156 -5.90203125 24.29070312 -5.8515625 23.41015625 C-5.77679688 22.30542969 -5.70203125 21.20070313 -5.625 20.0625 C-5.55539062 18.96035156 -5.48578125 17.85820312 -5.4140625 16.72265625 C-5.27742188 15.82417969 -5.14078125 14.92570312 -5 14 C-4.34 13.67 -3.68 13.34 -3 13 C-2.37330801 10.83532539 -1.84572626 8.64135476 -1.375 6.4375 C-1.11460937 5.23996094 -0.85421875 4.04242188 -0.5859375 2.80859375 C-0.39257812 1.88175781 -0.19921875 0.95492188 0 0 Z " fill="#71E0B3" transform="translate(423,333)"/>
<path d="M0 0 C0 0.66 0 1.32 0 2 C-4.22949995 4.41685712 -7.12335991 5.34833144 -12 5 C-12 5.66 -12 6.32 -12 7 C-13.32 7 -14.64 7 -16 7 C-16 7.99 -16 8.98 -16 10 C-15.01 10.33 -14.02 10.66 -13 11 C-15 12 -15 12 -16.9453125 11.44140625 C-17.66460937 11.15136719 -18.38390625 10.86132812 -19.125 10.5625 C-19.84945313 10.27503906 -20.57390625 9.98757813 -21.3203125 9.69140625 C-21.87460937 9.46324219 -22.42890625 9.23507812 -23 9 C-23 8.01 -23 7.02 -23 6 C-19.73120384 4.99325541 -16.4596529 3.99577511 -13.1875 3 C-12.25873047 2.71382813 -11.32996094 2.42765625 -10.37304688 2.1328125 C-9.48037109 1.86210937 -8.58769531 1.59140625 -7.66796875 1.3125 C-6.84578857 1.06113281 -6.0236084 0.80976563 -5.17651367 0.55078125 C-3 0 -3 0 0 0 Z " fill="#3AE39F" transform="translate(359,294)"/>
<path d="M0 0 C0 0.66 0 1.32 0 2 C-0.58007812 2.18175781 -1.16015625 2.36351562 -1.7578125 2.55078125 C-7.03253889 4.2480942 -11.99941453 6.10669208 -16.71484375 9.08203125 C-19.94411955 10.3792617 -22.78669534 10.18913527 -26.25 10.125 C-27.51328125 10.10695313 -28.7765625 10.08890625 -30.078125 10.0703125 C-31.04234375 10.04710937 -32.0065625 10.02390625 -33 10 C-30.21161605 8.5223745 -27.50494074 7.45592909 -24.48046875 6.5625 C-23.62259766 6.30726563 -22.76472656 6.05203125 -21.88085938 5.7890625 C-20.99205078 5.52867187 -20.10324219 5.26828125 -19.1875 5 C-18.31029297 4.73960937 -17.43308594 4.47921875 -16.52929688 4.2109375 C-14.02121609 3.46808036 -11.51085174 2.73342623 -9 2 C-8.2982666 1.79117187 -7.5965332 1.58234375 -6.87353516 1.3671875 C-2.22678257 0 -2.22678257 0 0 0 Z " fill="#74DEB3" transform="translate(392,284)"/>
<path d="M0 0 C0.33 0 0.66 0 1 0 C1.25600557 7.68016711 1.25600557 7.68016711 -1 12 C-1.56954767 14.28214587 -2.00105442 16.56808275 -2.4375 18.87890625 C-3 21 -3 21 -5 24 C-5.39013716 25.9896995 -5.73202649 27.99019869 -6 30 C-6.99 29.67 -7.98 29.34 -9 29 C-6.52891267 19.1590031 -3.26306008 9.59909908 0 0 Z " fill="#5CE0A8" transform="translate(59,398)"/>
<path d="M0 0 C-0.97582031 0.83144531 -1.95164062 1.66289062 -2.95703125 2.51953125 C-4.24224382 3.61712155 -5.52739697 4.71478145 -6.8125 5.8125 C-7.77639648 6.63331055 -7.77639648 6.63331055 -8.75976562 7.47070312 C-9.38173828 8.00244141 -10.00371094 8.53417969 -10.64453125 9.08203125 C-11.21534424 9.56905518 -11.78615723 10.0560791 -12.37426758 10.55786133 C-14.03986741 11.98235437 -14.03986741 11.98235437 -15.5222168 13.68237305 C-17 15 -17 15 -20 15 C-20 13.68 -20 12.36 -20 11 C-18.68 11 -17.36 11 -16 11 C-16.33 9.68 -16.66 8.36 -17 7 C-13.535 6.505 -13.535 6.505 -10 6 C-10.33 5.01 -10.66 4.02 -11 3 C-4.33333333 -1.44444444 -4.33333333 -1.44444444 0 0 Z " fill="#4ADFA3" transform="translate(101,145)"/>
<path d="M0 0 C0 5.10381938 -1.40437197 10.35450859 -5 14.0625 C-7 15 -7 15 -10 15 C-10 15.66 -10 16.32 -10 17 C-11.65 17.66 -13.3 18.32 -15 19 C-15 19.66 -15 20.32 -15 21 C-15.66 20.67 -16.32 20.34 -17 20 C-11.49410663 13.18135891 -5.88534722 6.49472922 0 0 Z " fill="#5CE4AB" transform="translate(241,174)"/>
<path d="M0 0 C-1.56920075 0.4636275 -3.14034482 0.92103679 -4.71679688 1.359375 C-6.31267529 1.80714927 -7.90222531 2.27782586 -9.48632812 2.765625 C-17.95923776 5.18138121 -25.9939138 5.35515627 -34.75 5.1875 C-36.14061029 5.17240584 -37.53123667 5.15872591 -38.921875 5.14648438 C-42.28167334 5.11148648 -45.64061774 5.06238853 -49 5 C-49 4.67 -49 4.34 -49 4 C-48.28980713 3.98018066 -47.57961426 3.96036133 -46.84790039 3.93994141 C-43.5857696 3.84384804 -40.32420672 3.7345145 -37.0625 3.625 C-35.38704102 3.57859375 -35.38704102 3.57859375 -33.67773438 3.53125 C-27.20626317 3.30351494 -21.25953424 2.63507834 -15 1 C-13.06563956 0.58909859 -11.12856168 0.19048126 -9.1875 -0.1875 C-7.84751953 -0.45626953 -7.84751953 -0.45626953 -6.48046875 -0.73046875 C-3.99414361 -1.00063636 -2.3569234 -0.77465314 0 0 Z " fill="#60D9A8" transform="translate(435,55)"/>
<path d="M0 0 C1.32 0.33 2.64 0.66 4 1 C3.25556641 1.72703125 3.25556641 1.72703125 2.49609375 2.46875 C-3.06537017 7.95634248 -8.6528105 13.47921575 -13 20 C-13.66 20 -14.32 20 -15 20 C-15 18.68 -15 17.36 -15 16 C-14.34 16 -13.68 16 -13 16 C-12.67 15.01 -12.34 14.02 -12 13 C-11.34 13 -10.68 13 -10 13 C-10 12.01 -10 11.02 -10 10 C-9.01 9.67 -8.02 9.34 -7 9 C-5.77554716 7.37051936 -5.77554716 7.37051936 -4.8125 5.4375 C-4.214375 4.303125 -3.61625 3.16875 -3 2 C-2.01 2 -1.02 2 0 2 C0 1.34 0 0.68 0 0 Z " fill="#68E0B2" transform="translate(297,243)"/>
<path d="M0 0 C0.99 0.33 1.98 0.66 3 1 C1.71480435 3.86697492 0.42870746 5.97607712 -2 8 C-2.66 8 -3.32 8 -4 8 C-4 8.66 -4 9.32 -4 10 C-4.66 10 -5.32 10 -6 10 C-6 10.66 -6 11.32 -6 12 C-6.66 12 -7.32 12 -8 12 C-8 12.66 -8 13.32 -8 14 C-9.75 15.5078125 -9.75 15.5078125 -12 17.125 C-12.7425 17.66382813 -13.485 18.20265625 -14.25 18.7578125 C-14.8275 19.16773438 -15.405 19.57765625 -16 20 C-15.58565093 15.16592748 -13.62206046 13.10462326 -10 10 C-9.01 9.67 -8.02 9.34 -7 9 C-6.67 8.34 -6.34 7.68 -6 7 C-5.01 7 -4.02 7 -3 7 C-2.67 6.01 -2.34 5.02 -2 4 C-1.34 4 -0.68 4 0 4 C-0.33 3.01 -0.66 2.02 -1 1 C-0.67 0.67 -0.34 0.34 0 0 Z " fill="#75E1B6" transform="translate(385,380)"/>
<path d="M0 0 C1 3 1 3 -0.125 5.5 C-2 8 -2 8 -4.5625 9.5 C-7.50962161 11.3136133 -8.03272384 12.74643472 -9 16 C-9.99 16 -10.98 16 -12 16 C-12.33 16.99 -12.66 17.98 -13 19 C-15.0625 19.6875 -15.0625 19.6875 -17 20 C-13.49108272 15.05152691 -9.82122999 10.6250086 -5.41796875 6.4453125 C-3.88992041 5.03580251 -3.88992041 5.03580251 -3 3 C-2.34 3 -1.68 3 -1 3 C-0.67 2.01 -0.34 1.02 0 0 Z " fill="#7CE2B8" transform="translate(109,323)"/>
<path d="M0 0 C0 0.66 0 1.32 0 2 C-5.36190101 4.61407872 -10.03435204 6.49228528 -16 7 C-16.33 6.01 -16.66 5.02 -17 4 C-5.67924528 0 -5.67924528 0 0 0 Z " fill="#3DE29F" transform="translate(338,418)"/>
<path d="M0 0 C-0.0721875 0.80824219 -0.144375 1.61648438 -0.21875 2.44921875 C-0.3115625 3.51785156 -0.404375 4.58648437 -0.5 5.6875 C-0.5928125 6.74324219 -0.685625 7.79898437 -0.78125 8.88671875 C-0.9723415 11.60636025 -1.04043935 14.27539856 -1 17 C-3.67868487 15.66065756 -3.74954078 14.48307603 -4.6875 11.6875 C-4.95949219 10.90761719 -5.23148437 10.12773437 -5.51171875 9.32421875 C-6.04788865 6.77205003 -5.94018381 5.41538934 -5 3 C-1.57142857 0 -1.57142857 0 0 0 Z " fill="#51E1A4" transform="translate(398,370)"/>
<path d="M0 0 C0.33 0.66 0.66 1.32 1 2 C-1.45454545 7.72727273 -1.45454545 7.72727273 -4 9 C-4.33 9.99 -4.66 10.98 -5 12 C-5.99 12 -6.98 12 -8 12 C-8 13.32 -8 14.64 -8 16 C-9.98 16.33 -11.96 16.66 -14 17 C-13.04956626 15.66102417 -12.08940853 14.32894573 -11.125 13 C-10.32449219 11.88625 -10.32449219 11.88625 -9.5078125 10.75 C-9.01023437 10.1725 -8.51265625 9.595 -8 9 C-7.34 9 -6.68 9 -6 9 C-5.7525 8.443125 -5.505 7.88625 -5.25 7.3125 C-3.78393985 4.60028873 -1.97010529 2.36412635 0 0 Z " fill="#67E1B1" transform="translate(280,129)"/>
<path d="M0 0 C0.66 0 1.32 0 2 0 C0.41078475 5.36095277 -1.18972938 10.70843973 -3 16 C-3.99 16 -4.98 16 -6 16 C-6.33 16.99 -6.66 17.98 -7 19 C-7 17.68 -7 16.36 -7 15 C-6.34 15 -5.68 15 -5 15 C-5.061875 14.34 -5.12375 13.68 -5.1875 13 C-4.93182247 8.90915946 -3.54304956 5.79333016 -2 2 C-1.34 2 -0.68 2 0 2 C0 1.34 0 0.68 0 0 Z " fill="#5FE0AA" transform="translate(412,368)"/>
<path d="M0 0 C0.80859375 1.640625 0.80859375 1.640625 1 4 C-0.58570661 6.12217932 -2.09290258 7.8833556 -3.9375 9.75 C-4.41896484 10.25660156 -4.90042969 10.76320312 -5.39648438 11.28515625 C-6.58653954 12.53412504 -7.79186613 13.7685103 -9 15 C-9.625 13.1875 -9.625 13.1875 -10 11 C-9.34 10.01 -8.68 9.02 -8 8 C-7.34 8 -6.68 8 -6 8 C-6 7.34 -6 6.68 -6 6 C-5.34 6 -4.68 6 -4 6 C-3.67 4.68 -3.34 3.36 -3 2 C-2.01 2 -1.02 2 0 2 C0 1.34 0 0.68 0 0 Z " fill="#56E0A9" transform="translate(311,227)"/>
<path d="M0 0 C-0.47567125 7.25398658 -2.29466594 13.26812223 -5 20 C-5.33 20 -5.66 20 -6 20 C-6 17.03 -6 14.06 -6 11 C-5.01 10.67 -4.02 10.34 -3 10 C-2.67 7.36 -2.34 4.72 -2 2 C-3.32 1.67 -4.64 1.34 -6 1 C-4 0 -4 0 0 0 Z " fill="#71DCB3" transform="translate(442,52)"/>
<path d="M0 0 C2.0625 0.4375 2.0625 0.4375 4 1 C3.28972656 1.77085937 2.57945312 2.54171875 1.84765625 3.3359375 C0.9191529 4.34885024 -0.00922606 5.36187701 -0.9375 6.375 C-1.40607422 6.88289063 -1.87464844 7.39078125 -2.35742188 7.9140625 C-4.97726768 10.74265854 -4.97726768 10.74265854 -7 14 C-7.66 14 -8.32 14 -9 14 C-9.33 14.66 -9.66 15.32 -10 16 C-10 15.01 -10 14.02 -10 13 C-9.34 13 -8.68 13 -8 13 C-8.20625 12.38125 -8.4125 11.7625 -8.625 11.125 C-8.74875 10.42375 -8.8725 9.7225 -9 9 C-8.34 8.34 -7.68 7.68 -7 7 C-5.68 7 -4.36 7 -3 7 C-2.690625 6.030625 -2.38125 5.06125 -2.0625 4.0625 C-1 1 -1 1 0 0 Z " fill="#5ADDAA" transform="translate(237,309)"/>
<path d="M0 0 C1 2 1 2 0.5 4.75 C-1.39630539 8.85866169 -4.04577546 11.73666881 -8 14 C-8.99 13.67 -9.98 13.34 -11 13 C-10.34 12.01 -9.68 11.02 -9 10 C-8.34 10 -7.68 10 -7 10 C-7 9.34 -7 8.68 -7 8 C-6.34 8 -5.68 8 -5 8 C-4.731875 7.4225 -4.46375 6.845 -4.1875 6.25 C-2.98280141 3.9674132 -1.59201885 2.0262058 0 0 Z " fill="#74E1B4" transform="translate(253,160)"/>
<path d="M0 0 C0.83144531 0.52207031 0.83144531 0.52207031 1.6796875 1.0546875 C4.61377114 2.25005491 6.06633406 1.84730887 9.125 1.125 C14.49905818 -0.00333523 19.52691305 -0.21369971 25 0 C25 0.33 25 0.66 25 1 C21.60720768 1.70311599 18.21043326 2.38470291 14.8125 3.0625 C13.37293945 3.36124023 13.37293945 3.36124023 11.90429688 3.66601562 C10.97294922 3.84970703 10.04160156 4.03339844 9.08203125 4.22265625 C8.22843018 4.39547119 7.3748291 4.56828613 6.49536133 4.74633789 C3.77237609 5.02313876 1.64223961 4.66418083 -1 4 C-0.67 2.68 -0.34 1.36 0 0 Z " fill="#7CDBB3" transform="translate(49,428)"/>
<path d="M0 0 C0.99 0 1.98 0 3 0 C1.42351454 3.68708075 -0.87442938 6.29873145 -3.5625 9.25 C-4.36816406 10.14203125 -5.17382812 11.0340625 -6.00390625 11.953125 C-6.66261719 12.62859375 -7.32132813 13.3040625 -8 14 C-8.33 14 -8.66 14 -9 14 C-9 11.69 -9 9.38 -9 7 C-7.02 6.67 -5.04 6.34 -3 6 C-3 5.01 -3 4.02 -3 3 C-2.01 3 -1.02 3 0 3 C0 2.01 0 1.02 0 0 Z " fill="#60DFAD" transform="translate(262,282)"/>
<path d="M0 0 C0.99 0 1.98 0 3 0 C1.38462556 3.89917968 -1.27924873 6.71293772 -4.125 9.75 C-4.59292969 10.25660156 -5.06085938 10.76320313 -5.54296875 11.28515625 C-6.69126541 12.52719141 -7.84508672 13.76411494 -9 15 C-9.33 13.68 -9.66 12.36 -10 11 C-9.01 11 -8.02 11 -7 11 C-7 10.01 -7 9.02 -7 8 C-6.34 7.67 -5.68 7.34 -5 7 C-4.34786708 4.97536745 -4.34786708 4.97536745 -4 3 C-2.68 2.67 -1.36 2.34 0 2 C0 1.34 0 0.68 0 0 Z " fill="#67E0AE" transform="translate(279,263)"/>
<path d="M0 0 C0.33 0 0.66 0 1 0 C1.02712066 1.43739513 1.04645067 2.87493863 1.0625 4.3125 C1.07410156 5.11300781 1.08570312 5.91351563 1.09765625 6.73828125 C1 9 1 9 0 12 C-0.66 12 -1.32 12 -2 12 C-2.33 14.31 -2.66 16.62 -3 19 C-3.66 19 -4.32 19 -5 19 C-4.35731596 14.54856736 -3.29333357 10.41118353 -1.9375 6.125 C-1.57527344 4.97257813 -1.21304688 3.82015625 -0.83984375 2.6328125 C-0.42412109 1.32957031 -0.42412109 1.32957031 0 0 Z " fill="#5FDFAC" transform="translate(79,132)"/>
<path d="M0 0 C0.99 0 1.98 0 3 0 C3 0.66 3 1.32 3 2 C2.34 2 1.68 2 1 2 C0.5978125 2.86625 0.5978125 2.86625 0.1875 3.75 C-1.01719859 6.0325868 -2.40798115 7.9737942 -4 10 C-1.36 10 1.28 10 4 10 C4 10.33 4 10.66 4 11 C0.37 11.33 -3.26 11.66 -7 12 C-7 10.68 -7 9.36 -7 8 C-6.34 8 -5.68 8 -5 8 C-4.67 6.35 -4.34 4.7 -4 3 C-2.68 3 -1.36 3 0 3 C0 2.01 0 1.02 0 0 Z " fill="#77E1B1" transform="translate(202,349)"/>
<path d="M0 0 C0 4.88129425 -3.0739431 8.23698538 -6 12 C-7.9163422 13.87749742 -9.8345283 15.40167565 -12 17 C-12.66 16.67 -13.32 16.34 -14 16 C-13.34 15.01 -12.68 14.02 -12 13 C-11.34 13 -10.68 13 -10 13 C-9.75507813 12.43796875 -9.51015625 11.8759375 -9.2578125 11.296875 C-7.77073461 8.58134146 -5.95937218 6.53608562 -3.875 4.25 C-3.15054688 3.45078125 -2.42609375 2.6515625 -1.6796875 1.828125 C-0.84824219 0.92320312 -0.84824219 0.92320312 0 0 Z " fill="#73E0B3" transform="translate(189,233)"/>
<path d="M0 0 C0.66 0.33 1.32 0.66 2 1 C1.60079865 2.75406653 1.17984334 4.50318982 0.75 6.25 C0.51796875 7.22453125 0.2859375 8.1990625 0.046875 9.203125 C-1.11799266 12.31523411 -2.51330545 13.84212456 -5 16 C-5.33 15.34 -5.66 14.68 -6 14 C-5.09176973 11.56442428 -4.13171929 9.23804483 -3.0625 6.875 C-2.77181641 6.21628906 -2.48113281 5.55757813 -2.18164062 4.87890625 C-1.46139802 3.24950495 -0.73158857 1.62433868 0 0 Z " fill="#6FE3B3" transform="translate(66,381)"/>
<path d="M0 0 C0 0.66 0 1.32 0 2 C-0.66 2 -1.32 2 -2 2 C-2.66 3.32 -3.32 4.64 -4 6 C-8.33333333 6 -12.66666667 6 -17 6 C-17 5.67 -17 5.34 -17 5 C-16.08476562 4.72285156 -15.16953125 4.44570313 -14.2265625 4.16015625 C-13.03804688 3.79792969 -11.84953125 3.43570312 -10.625 3.0625 C-9.44164062 2.70285156 -8.25828125 2.34320313 -7.0390625 1.97265625 C-0.87550201 0 -0.87550201 0 0 0 Z " fill="#63E4B1" transform="translate(338,351)"/>
<path d="M0 0 C1.32 0 2.64 0 4 0 C2.125 7.625 2.125 7.625 1 11 C0.01 11 -0.98 11 -2 11 C-1.125 3.375 -1.125 3.375 0 0 Z " fill="#5AE3AA" transform="translate(423,333)"/>
<path d="M0 0 C-0.639375 0.28875 -1.27875 0.5775 -1.9375 0.875 C-4.15206079 1.82823451 -4.15206079 1.82823451 -5 4 C-2.525 4.99 -2.525 4.99 0 6 C-2 7 -2 7 -3.9453125 6.44140625 C-4.66460937 6.15136719 -5.38390625 5.86132812 -6.125 5.5625 C-6.84945313 5.27503906 -7.57390625 4.98757813 -8.3203125 4.69140625 C-8.87460937 4.46324219 -9.42890625 4.23507812 -10 4 C-10 3.01 -10 2.02 -10 1 C-3.71428571 -1.42857143 -3.71428571 -1.42857143 0 0 Z " fill="#7BD9B6" transform="translate(346,299)"/>
<path d="M0 0 C0.66 0 1.32 0 2 0 C1.46147924 4.11583724 -0.74384625 6.2670741 -3.5 9.25 C-4.3146875 10.14203125 -5.129375 11.0340625 -5.96875 11.953125 C-6.97421875 12.96632812 -6.97421875 12.96632812 -8 14 C-8.33 14 -8.66 14 -9 14 C-9 12.35 -9 10.7 -9 9 C-8.0409375 8.5978125 -8.0409375 8.5978125 -7.0625 8.1875 C-4.66868314 7.11332248 -4.66868314 7.11332248 -4 4 C-1.9375 3.3125 -1.9375 3.3125 0 3 C0 2.01 0 1.02 0 0 Z " fill="#5FE3B3" transform="translate(345,189)"/>
<path d="M0 0 C0.66 0.33 1.32 0.66 2 1 C-0.50632911 4.88481013 -0.50632911 4.88481013 -2.875 5.4375 C-5.29633664 5.88795752 -5.29633664 5.88795752 -7.4375 8.4375 C-9.95506552 10.95506552 -11.65461519 11.94859334 -15 13 C-13.625 11 -13.625 11 -12 9 C-11.34 9 -10.68 9 -10 9 C-10 8.34 -10 7.68 -10 7 C-7.8125 5.2734375 -7.8125 5.2734375 -5 3.375 C-4.071875 2.74335937 -3.14375 2.11171875 -2.1875 1.4609375 C-1.1046875 0.73777344 -1.1046875 0.73777344 0 0 Z " fill="#74DDB6" transform="translate(118,67)"/>
<path d="M0 0 C0.99 0.33 1.98 0.66 3 1 C1.625 3 1.625 3 0 5 C-0.66 5 -1.32 5 -2 5 C-2.226875 5.5775 -2.45375 6.155 -2.6875 6.75 C-4.33038023 9.5663661 -6.39533227 11.08077114 -9 13 C-9 11.68 -9 10.36 -9 9 C-7.68 8.67 -6.36 8.34 -5 8 C-4.814375 7.1028125 -4.814375 7.1028125 -4.625 6.1875 C-4 4 -4 4 -2 1 C-1.34 1.33 -0.68 1.66 0 2 C0 1.34 0 0.68 0 0 Z " fill="#66DFAF" transform="translate(250,296)"/>
<path d="M0 0 C0 3.44360632 -0.79591532 4.74795392 -2.5 7.6875 C-2.9640625 8.49574219 -3.428125 9.30398438 -3.90625 10.13671875 C-4.2671875 10.75160156 -4.628125 11.36648438 -5 12 C-6.32 12 -7.64 12 -9 12 C-9 12.66 -9 13.32 -9 14 C-9.66 13.67 -10.32 13.34 -11 13 C-9.54300902 11.20724155 -8.08436345 9.41582771 -6.625 7.625 C-5.40683594 6.12839844 -5.40683594 6.12839844 -4.1640625 4.6015625 C-2 2 -2 2 0 0 Z " fill="#77E5B9" transform="translate(133,296)"/>
<path d="M0 0 C0.66 0.66 1.32 1.32 2 2 C4.82957829 1.63723355 7.29084291 0.90305236 10 0 C12.3406065 0.27769908 14.67624308 0.60539977 17 1 C13.51783717 3.05137315 10.22724343 3.56818592 6.25 4.125 C5.07953125 4.29257812 3.9090625 4.46015625 2.703125 4.6328125 C1.81109375 4.75398438 0.9190625 4.87515625 0 5 C-0.5625 3.0625 -0.5625 3.0625 -1 1 C-0.67 0.67 -0.34 0.34 0 0 Z " fill="#38E29C" transform="translate(51,426)"/>
<path d="M0 0 C0.625 1.875 0.625 1.875 1 4 C-1 6 -1 6 -3.375 6.875 C-6.30117515 8.12907507 -7.88739484 9.65266093 -10 12 C-10.99 11.67 -11.98 11.34 -13 11 C-8.4954955 6.12012012 -8.4954955 6.12012012 -5.9375 5.5 C-2.89379668 4.71452818 -1.77171717 2.46774892 0 0 Z " fill="#4FE7A9" transform="translate(151,279)"/>
<path d="M0 0 C-1.61594832 2.04119788 -3.2856382 4.04072937 -5 6 C-5.66 6 -6.32 6 -7 6 C-7.28875 6.639375 -7.5775 7.27875 -7.875 7.9375 C-9 10 -9 10 -11 11 C-10.41980487 7.63486826 -9.36548527 6.36548527 -7 4 C-6.64830932 2.67139075 -6.31229724 1.33841672 -6 0 C-3.50907189 -1.24546405 -2.58919267 -0.7767578 0 0 Z " fill="#62E0AA" transform="translate(216,338)"/>
<path d="M0 0 C0.99 0 1.98 0 3 0 C-0.07517084 10.55808656 -0.07517084 10.55808656 -2 15 C-2.33 15 -2.66 15 -3 15 C-2.88529863 13.24929483 -2.75780972 11.49942464 -2.625 9.75 C-2.55539062 8.77546875 -2.48578125 7.8009375 -2.4140625 6.796875 C-2.01534751 4.10366811 -1.36492937 2.33036721 0 0 Z " fill="#60DEAA" transform="translate(443,284)"/>
<path d="M0 0 C0.33 0 0.66 0 1 0 C1 3.96 1 7.92 1 12 C-0.98 12.99 -0.98 12.99 -3 14 C-2.40380045 9.13103697 -1.43023178 4.67209049 0 0 Z " fill="#5CE2AB" transform="translate(83,118)"/>
<path d="M0 0 C0.33 1.32 0.66 2.64 1 4 C0.34 4 -0.32 4 -1 4 C-1.103125 4.680625 -1.20625 5.36125 -1.3125 6.0625 C-2.14725019 9.62915989 -3.49472754 12.66222194 -5 16 C-5.99 16 -6.98 16 -8 16 C-6.42986223 10.03347646 -3.24970218 5.17090975 0 0 Z " fill="#7CE0B3" transform="translate(75,364)"/>
<path d="M0 0 C0.33 0.99 0.66 1.98 1 3 C-0.6875 5.4375 -0.6875 5.4375 -3 8 C-3.680625 8.763125 -4.36125 9.52625 -5.0625 10.3125 C-7 12 -7 12 -10 12 C-8.62845314 8.81580579 -7.13830017 7.02887404 -4.4375 4.875 C-1.78974334 2.79096366 -1.78974334 2.79096366 0 0 Z " fill="#60DFAC" transform="translate(374,320)"/>
<path d="M0 0 C1.09570312 0.00902344 2.19140625 0.01804687 3.3203125 0.02734375 C4.16335938 0.03894531 5.00640625 0.05054688 5.875 0.0625 C4.885 1.5475 4.885 1.5475 3.875 3.0625 C1.0864711 3.28357787 -1.47153181 3.34357535 -4.25 3.25 C-5.00410156 3.23646484 -5.75820313 3.22292969 -6.53515625 3.20898438 C-8.39874127 3.17359985 -10.26195978 3.11979167 -12.125 3.0625 C-7.65862009 0.82931005 -5.08929512 -0.05414144 0 0 Z " fill="#56E4AB" transform="translate(371.125,290.9375)"/>
<path d="M0 0 C1 3 1 3 0.1796875 4.7890625 C-3.37546468 9.79182156 -3.37546468 9.79182156 -6.8125 10.9375 C-7.8953125 10.9684375 -7.8953125 10.9684375 -9 11 C-8.06558465 9.72689688 -7.12732889 8.456612 -6.1875 7.1875 C-5.66542969 6.47980469 -5.14335937 5.77210938 -4.60546875 5.04296875 C-3.16871123 3.21468607 -1.68184237 1.60103312 0 0 Z " fill="#71E1B0" transform="translate(199,222)"/>
<path d="M0 0 C0 0.66 0 1.32 0 2 C0.66 2.33 1.32 2.66 2 3 C-3.324335 5.32086397 -7.43842552 4.91457003 -13 4 C-8.96895446 1.88680873 -4.61607572 0 0 0 Z " fill="#70E4B4" transform="translate(405,280)"/>
<path d="M0 0 C-1.28627711 1.17260611 -2.57919783 2.3379283 -3.875 3.5 C-4.59429687 4.1496875 -5.31359375 4.799375 -6.0546875 5.46875 C-8 7 -8 7 -10 7 C-10.33 5.68 -10.66 4.36 -11 3 C-4.33333333 -1.44444444 -4.33333333 -1.44444444 0 0 Z " fill="#60DDA9" transform="translate(101,145)"/>
<path d="M0 0 C0.99 0 1.98 0 3 0 C2.42435345 3.88561424 0.48746646 6.04613357 -2 9 C-2.33 9.66 -2.66 10.32 -3 11 C-3.66 11 -4.32 11 -5 11 C-4.54917531 9.53932801 -4.08906463 8.08151968 -3.625 6.625 C-3.36976562 5.81289062 -3.11453125 5.00078125 -2.8515625 4.1640625 C-2 2 -2 2 0 0 Z " fill="#54E0A7" transform="translate(102,80)"/>
<path d="M0 0 C1.32 0.33 2.64 0.66 4 1 C2.57277341 2.1998278 1.13284224 3.3845576 -0.3125 4.5625 C-1.51326172 5.55443359 -1.51326172 5.55443359 -2.73828125 6.56640625 C-3.85783203 7.27603516 -3.85783203 7.27603516 -5 8 C-5.99 7.67 -6.98 7.34 -8 7 C-7.67 6.34 -7.34 5.68 -7 5 C-6.01 5 -5.02 5 -4 5 C-3.67 4.01 -3.34 3.02 -3 2 C-2.01 2 -1.02 2 0 2 C0 1.34 0 0.68 0 0 Z " fill="#5FDCAA" transform="translate(364,400)"/>
<path d="M0 0 C0.33 1.32 0.66 2.64 1 4 C-2.75 7 -2.75 7 -5 7 C-5.2475 7.804375 -5.495 8.60875 -5.75 9.4375 C-6.1625 10.283125 -6.575 11.12875 -7 12 C-9.078125 12.66015625 -9.078125 12.66015625 -11 13 C-10.21654285 11.82780457 -9.42297164 10.66236332 -8.625 9.5 C-8.18414062 8.8503125 -7.74328125 8.200625 -7.2890625 7.53125 C-6.86367188 7.0259375 -6.43828125 6.520625 -6 6 C-5.34 6 -4.68 6 -4 6 C-3.71125 5.38125 -3.4225 4.7625 -3.125 4.125 C-2 2 -2 2 0 0 Z " fill="#75E0B2" transform="translate(265,147)"/>
<path d="M0 0 C1.65 0 3.3 0 5 0 C4.45773019 3.79588866 2.79872437 5.47211993 0 8 C-0.66 7.67 -1.32 7.34 -2 7 C-1.42415568 4.61435923 -0.77772405 2.33317216 0 0 Z " fill="#4DE0A4" transform="translate(373,155)"/>
<path d="M0 0 C-0.57352893 3.87132028 -2.48704352 6.08172796 -5 9 C-5.99 8.67 -6.98 8.34 -8 8 C-7.34 8 -6.68 8 -6 8 C-6.0825 7.236875 -6.165 6.47375 -6.25 5.6875 C-6 3 -6 3 -4.125 1.1875 C-2 0 -2 0 0 0 Z " fill="#57DFA5" transform="translate(402,128)"/>
<path d="M0 0 C0 0.99 0 1.98 0 3 C-0.66 3 -1.32 3 -2 3 C-2 3.99 -2 4.98 -2 6 C-2.99 6 -3.98 6 -5 6 C-5 6.66 -5 7.32 -5 8 C-5.66 8 -6.32 8 -7 8 C-7.33 9.32 -7.66 10.64 -8 12 C-8.66 12 -9.32 12 -10 12 C-8.73050758 7.810675 -4.99190297 0 0 0 Z " fill="#2FEA9D" transform="translate(412,113)"/>
<path d="M0 0 C-0.33 2.64 -0.66 5.28 -1 8 C-3 5 -3 5 -3 3 C-5.97 3 -8.94 3 -12 3 C-12 2.67 -12 2.34 -12 2 C-7.8803623 0.70756464 -4.33168317 -0.26252625 0 0 Z " fill="#38E39B" transform="translate(440,54)"/>
<path d="M0 0 C0.79921875 0.00902344 1.5984375 0.01804687 2.421875 0.02734375 C3.02515625 0.03894531 3.6284375 0.05054688 4.25 0.0625 C1.10426323 2.15965785 -0.76456251 2.58254559 -4.4375 3.1875 C-5.92830078 3.43886719 -5.92830078 3.43886719 -7.44921875 3.6953125 C-8.20847656 3.81648438 -8.96773438 3.93765625 -9.75 4.0625 C-9.42 3.0725 -9.09 2.0825 -8.75 1.0625 C-5.8585914 -0.0569613 -3.07237388 -0.04518197 0 0 Z " fill="#5ADDA4" transform="translate(414.75,277.9375)"/>
<path d="M0 0 C0.33 0.99 0.66 1.98 1 3 C-0.3125 5.1875 -0.3125 5.1875 -2 7 C-2.66 7 -3.32 7 -4 7 C-4 7.66 -4 8.32 -4 9 C-4.66 9 -5.32 9 -6 9 C-6.33 9.66 -6.66 10.32 -7 11 C-6.67 9.35 -6.34 7.7 -6 6 C-5.34 6 -4.68 6 -4 6 C-4 4.68 -4 3.36 -4 2 C-2.68 1.34 -1.36 0.68 0 0 Z " fill="#5CDDA8" transform="translate(385,146)"/>
<path d="M0 0 C0.33 0 0.66 0 1 0 C1.43177893 6.26079448 0.92739438 9.09075703 -3 14 C-4 12 -4 12 -3.22265625 9.1796875 C-2.83980469 8.08914063 -2.45695312 6.99859375 -2.0625 5.875 C-1.68222656 4.77929688 -1.30195312 3.68359375 -0.91015625 2.5546875 C-0.60980469 1.71164062 -0.30945312 0.86859375 0 0 Z " fill="#6EDFB2" transform="translate(59,398)"/>
<path d="M0 0 C1 3 1 3 -0.1875 5.5625 C-2.02001957 8.02692286 -3.17445421 8.92824125 -6 10 C-5.38722388 7.03824877 -4.74627478 5.61941217 -3 3 C-2.34 3 -1.68 3 -1 3 C-0.67 2.01 -0.34 1.02 0 0 Z " fill="#5DE2AF" transform="translate(109,323)"/>
<path d="M0 0 C-0.33 1.65 -0.66 3.3 -1 5 C-1.33 4.01 -1.66 3.02 -2 2 C-3.85625 2.5259375 -3.85625 2.5259375 -5.75 3.0625 C-8.903292 3.95593273 -10.86774164 4.00881294 -14 3 C-12.04486839 2.303447 -10.08577524 1.61800435 -8.125 0.9375 C-7.03445313 0.55464844 -5.94390625 0.17179687 -4.8203125 -0.22265625 C-2 -1 -2 -1 0 0 Z " fill="#76DBAB" transform="translate(453,266)"/>
<path d="M0 0 C0.66 0 1.32 0 2 0 C1.49890042 4.38462134 0.01704885 6.8000997 -3 10 C-3.66 10 -4.32 10 -5 10 C-5 8.68 -5 7.36 -5 6 C-4.34 6 -3.68 6 -3 6 C-2.67 5.01 -2.34 4.02 -2 3 C-1.34 3 -0.68 3 0 3 C0 2.01 0 1.02 0 0 Z " fill="#58DFA9" transform="translate(287,253)"/>
<path d="M0 0 C0.75 1.6875 0.75 1.6875 1 4 C-0.8125 6.5 -0.8125 6.5 -3 9 C-3.350625 9.7425 -3.70125 10.485 -4.0625 11.25 C-5 13 -5 13 -8 14 C-8 13.34 -8 12.68 -8 12 C-7.34 11.67 -6.68 11.34 -6 11 C-4.94668566 9.22044762 -4.94668566 9.22044762 -4 7.125 C-2.78798161 4.55892982 -1.58730868 2.38096302 0 0 Z " fill="#4EE0A5" transform="translate(91,343)"/>
<path d="M0 0 C0 3 0 3 -1 5 C-1.66 5 -2.32 5 -3 5 C-3.2475 5.61875 -3.495 6.2375 -3.75 6.875 C-5.20628639 9.35068687 -6.37812506 9.95125002 -9 11 C-8.67 9.68 -8.34 8.36 -8 7 C-7.38125 6.938125 -6.7625 6.87625 -6.125 6.8125 C-3.72882071 6.18259554 -3.72882071 6.18259554 -2.875 3.5 C-2.58625 2.675 -2.2975 1.85 -2 1 C-1.34 0.67 -0.68 0.34 0 0 Z " fill="#3BE49E" transform="translate(262,153)"/>
<path d="M0 0 C-1.49097658 3.7952131 -3.75700849 5.61042731 -7 8 C-6.62952882 5.25851328 -6.31412056 3.41406801 -4.625 1.1875 C-3 0 -3 0 0 0 Z " fill="#67DEAE" transform="translate(376,392)"/>
<path d="M0 0 C1.1171875 1.671875 1.1171875 1.671875 2 4 C1.3203125 6.578125 1.3203125 6.578125 0.125 9.25 C-0.26429688 10.14203125 -0.65359375 11.0340625 -1.0546875 11.953125 C-1.36664063 12.62859375 -1.67859375 13.3040625 -2 14 C-2.66 13.34 -3.32 12.68 -4 12 C-4 11.01 -4 10.02 -4 9 C-3.34 8.67 -2.68 8.34 -2 8 C-1.31527335 6.11235097 -1.31527335 6.11235097 -0.875 3.9375 C-0.70742188 3.20402344 -0.53984375 2.47054688 -0.3671875 1.71484375 C-0.24601562 1.14894531 -0.12484375 0.58304687 0 0 Z " fill="#6FE2B4" transform="translate(449,270)"/>
<path d="M0 0 C0.33 1.32 0.66 2.64 1 4 C0.34 4 -0.32 4 -1 4 C-1 4.66 -1 5.32 -1 6 C-1.66 6 -2.32 6 -3 6 C-3.28875 6.639375 -3.5775 7.27875 -3.875 7.9375 C-5 10 -5 10 -7 11 C-7 9.68 -7 8.36 -7 7 C-6.01 7 -5.02 7 -4 7 C-3.67 5.68 -3.34 4.36 -3 3 C-2.01 3 -1.02 3 0 3 C0 2.01 0 1.02 0 0 Z " fill="#71DCAE" transform="translate(335,201)"/>
<path d="M0 0 C0.66 0.33 1.32 0.66 2 1 C0.51643192 6.68701095 0.51643192 6.68701095 -2.0625 8.25 C-2.701875 8.4975 -3.34125 8.745 -4 9 C-4.33 9.66 -4.66 10.32 -5 11 C-4.625 8.5625 -4.625 8.5625 -4 6 C-3.34 5.67 -2.68 5.34 -2 5 C-1.27840576 3.35636866 -0.60648579 1.68949614 0 0 Z " fill="#59DCAA" transform="translate(424,93)"/>
<path d="M0 0 C-4.74354436 2.22656164 -8.72250715 3.46148032 -14 4 C-14.33 3.34 -14.66 2.68 -15 2 C-12.87707704 1.47076428 -10.75157949 0.95184623 -8.625 0.4375 C-7.44164062 0.14746094 -6.25828125 -0.14257812 -5.0390625 -0.44140625 C-2 -1 -2 -1 0 0 Z " fill="#7EDEB8" transform="translate(336,421)"/>
<path d="M0 0 C0.33 0.99 0.66 1.98 1 3 C0.01 3.33 -0.98 3.66 -2 4 C-2.33 5.65 -2.66 7.3 -3 9 C-4.32 8.67 -5.64 8.34 -7 8 C-4.69 5.36 -2.38 2.72 0 0 Z " fill="#7CE5B9" transform="translate(117,314)"/>
<path d="M0 0 C0.66 0.33 1.32 0.66 2 1 C1.01 4.3 0.02 7.6 -1 11 C-1.33 11 -1.66 11 -2 11 C-2.25 3.375 -2.25 3.375 0 0 Z " fill="#5EE1AB" transform="translate(434,71)"/>
<path d="M0 0 C0.66 0 1.32 0 2 0 C1.67 0.99 1.34 1.98 1 3 C0.34 3 -0.32 3 -1 3 C-1.66 4.65 -2.32 6.3 -3 8 C-4.32 7.67 -5.64 7.34 -7 7 C-5.625 5.5 -5.625 5.5 -4 4 C-3.34 4 -2.68 4 -2 4 C-2 3.34 -2 2.68 -2 2 C-1.34 2 -0.68 2 0 2 C0 1.34 0 0.68 0 0 Z " fill="#7BE0B5" transform="translate(362,332)"/>
<path d="M0 0 C-1.2065625 0.86625 -1.2065625 0.86625 -2.4375 1.75 C-4.97866739 3.98126893 -5.65120368 4.74456771 -6 8 C-6.66 8 -7.32 8 -8 8 C-7.34 5.36 -6.68 2.72 -6 0 C-2 -1 -2 -1 0 0 Z " fill="#34E79B" transform="translate(116,323)"/>
<path d="M0 0 C0 0.66 0 1.32 0 2 C-1.41377782 2.36552803 -2.83120576 2.71695495 -4.25 3.0625 C-5.03890625 3.25972656 -5.8278125 3.45695312 -6.640625 3.66015625 C-9.10394822 4.01497267 -10.65604132 3.76877544 -13 3 C-11.39743892 2.49487756 -9.79288208 1.99608373 -8.1875 1.5 C-7.29417969 1.2215625 -6.40085937 0.943125 -5.48046875 0.65625 C-3 0 -3 0 0 0 Z " fill="#72E0B5" transform="translate(359,294)"/>
<path d="M0 0 C-4.39453125 4.00390625 -4.39453125 4.00390625 -6 5 C-6.99 4.67 -7.98 4.34 -9 4 C-6.77642026 0.66463039 -4.04815944 -2.02407972 0 0 Z " fill="#57E6AB" transform="translate(251,169)"/>
<path d="M0 0 C0.66 0.33 1.32 0.66 2 1 C0.6875 3.9375 0.6875 3.9375 -1 7 C-1.99 7.33 -2.98 7.66 -4 8 C-3.67 6.35 -3.34 4.7 -3 3 C-2.34 3 -1.68 3 -1 3 C-0.67 2.01 -0.34 1.02 0 0 Z " fill="#33E898" transform="translate(77,365)"/>
<path d="M0 0 C0.33 0.99 0.66 1.98 1 3 C0.01 3.495 0.01 3.495 -1 4 C-1 3.34 -1 2.68 -1 2 C-2.3921875 2.5259375 -2.3921875 2.5259375 -3.8125 3.0625 C-7 4 -7 4 -10 3 C-10 2.34 -10 1.68 -10 1 C-6.7 0.67 -3.4 0.34 0 0 Z " fill="#35E499" transform="translate(331,356)"/>
<path d="M0 0 C0.66 0.33 1.32 0.66 2 1 C1.01 4.3 0.02 7.6 -1 11 C-1.33 11 -1.66 11 -2 11 C-2.25 3.375 -2.25 3.375 0 0 Z " fill="#65DFAD" transform="translate(429,322)"/>
<path d="M0 0 C5.06232884 -0.48990279 9.32630846 1.2893678 14 3 C14 3.33 14 3.66 14 4 C12.22825181 3.91276622 10.45752623 3.80458345 8.6875 3.6875 C7.70136719 3.62949219 6.71523438 3.57148438 5.69921875 3.51171875 C2.75615543 2.95377187 1.81817001 2.31459868 0 0 Z " fill="#3FE09E" transform="translate(343,303)"/>
<path d="M0 0 C-2.52956528 3.0916909 -5.22454612 3.90931332 -9 5 C-9 4.01 -9 3.02 -9 2 C-5.86501708 0.14223235 -3.62528568 -0.20140476 0 0 Z " fill="#74E1B4" transform="translate(120,132)"/>
<path d="M0 0 C0.33 0.66 0.66 1.32 1 2 C0.06553465 4.03144641 -0.93224776 6.03533587 -2 8 C-3.32 7.67 -4.64 7.34 -6 7 C-4.02 4.69 -2.04 2.38 0 0 Z " fill="#76E3B4" transform="translate(280,129)"/>
<path d="M0 0 C0.33 1.32 0.66 2.64 1 4 C-0.98 5.32 -2.96 6.64 -5 8 C-5.66 7.67 -6.32 7.34 -7 7 C-4.69 4.69 -2.38 2.38 0 0 Z " fill="#82E2B8" transform="translate(223,195)"/>
<path d="M0 0 C0.33 0 0.66 0 1 0 C1.0270043 1.45823212 1.04639787 2.91660675 1.0625 4.375 C1.07410156 5.18710938 1.08570312 5.99921875 1.09765625 6.8359375 C1 9 1 9 0 11 C-0.66 11 -1.32 11 -2 11 C-1.40049704 7.31733897 -0.75241109 3.65456815 0 0 Z " fill="#79E3B9" transform="translate(76,140)"/>
<path d="M0 0 C0.66 0.33 1.32 0.66 2 1 C0.875 2.9375 0.875 2.9375 -1 5 C-4.1875 5.75 -4.1875 5.75 -7 6 C-4.74259377 3.66475218 -2.7194239 1.81294927 0 0 Z " fill="#8FE4BE" transform="translate(118,67)"/>
<path d="M0 0 C3.3 0.33 6.6 0.66 10 1 C10 1.99 10 2.98 10 4 C6.7 3.01 3.4 2.02 0 1 C0 0.67 0 0.34 0 0 Z " fill="#81E2B2" transform="translate(348,306)"/>
<path d="M0 0 C0.33 0.99 0.66 1.98 1 3 C-0.62339805 4.70884005 -2.29319053 6.37446717 -4 8 C-4.66 8 -5.32 8 -6 8 C-4.55746343 4.63408134 -2.66735273 2.48952921 0 0 Z " fill="#84E4BA" transform="translate(159,267)"/>
<path d="M0 0 C0.33 1.32 0.66 2.64 1 4 C-2.75 7 -2.75 7 -5 7 C-3.70700306 4.11562221 -2.34058637 2.12780579 0 0 Z " fill="#7EE2BB" transform="translate(174,250)"/>
<path d="M0 0 C0.66 0 1.32 0 2 0 C1.4409112 3.24271506 0.5867822 4.93057424 -2 7 C-2.66 7 -3.32 7 -4 7 C-4 6.01 -4 5.02 -4 4 C-2.68 3.67 -1.36 3.34 0 3 C0 2.01 0 1.02 0 0 Z " fill="#54D7A2" transform="translate(345,189)"/>
<path d="M0 0 C0.625 1.875 0.625 1.875 1 4 C0.34 4.66 -0.32 5.32 -1 6 C-3.125 5.625 -3.125 5.625 -5 5 C-3.35 3.35 -1.7 1.7 0 0 Z " fill="#7FE4BD" transform="translate(236,180)"/>
<path d="M0 0 C0.95904856 3.83619425 0.91892116 5.32431536 0 9 C-0.99 8.67 -1.98 8.34 -3 8 C-2.01 5.36 -1.02 2.72 0 0 Z " fill="#7ED6B6" transform="translate(68,165)"/>
<path d="M0 0 C-3.42346555 3.14958831 -6.44262737 3.56179109 -11 4 C-9.71264403 1.42528807 -8.71510189 1.29583343 -6.0625 0.3125 C-5.35222656 0.04050781 -4.64195313 -0.23148438 -3.91015625 -0.51171875 C-2 -1 -2 -1 0 0 Z " fill="#85E3B9" transform="translate(132,63)"/>
<path d="M0 0 C0 3.10551666 -0.5393715 4.35261084 -2 7 C-2.66 7 -3.32 7 -4 7 C-4 7.66 -4 8.32 -4 9 C-4.66 8.67 -5.32 8.34 -6 8 C-4.02 5.36 -2.04 2.72 0 0 Z " fill="#85E3BF" transform="translate(87,348)"/>
<path d="M0 0 C0 3.57575896 -1.08840607 5.05295935 -3 8 C-3.99 7.67 -4.98 7.34 -6 7 C-4.02 4.69 -2.04 2.38 0 0 Z " fill="#83E3BF" transform="translate(189,233)"/>
<path d="M0 0 C0.66 0 1.32 0 2 0 C1.6875 2.375 1.6875 2.375 1 5 C0.01 5.66 -0.98 6.32 -2 7 C-1.125 2.25 -1.125 2.25 0 0 Z " fill="#4FDC9E" transform="translate(303,235)"/>
<path d="M0 0 C0.99 0 1.98 0 3 0 C1.63016497 3.16115776 1.0109362 3.9927092 -2 6 C-1.125 1.125 -1.125 1.125 0 0 Z " fill="#7EE3B3" transform="translate(314,224)"/>
<path d="M0 0 C0.33 0.66 0.66 1.32 1 2 C0.3125 4.0625 0.3125 4.0625 -1 6 C-3.125 6.75 -3.125 6.75 -5 7 C-3.47793991 4.37098712 -2.15634036 2.15634036 0 0 Z " fill="#7EE5BE" transform="translate(205,215)"/>
<path d="M0 0 C0.33 0.66 0.66 1.32 1 2 C1.99 2 2.98 2 4 2 C3 5 3 5 0.9375 6.1875 C0.298125 6.455625 -0.34125 6.72375 -1 7 C-1.33 6.34 -1.66 5.68 -2 5 C-1.34 5 -0.68 5 0 5 C0 3.35 0 1.7 0 0 Z " fill="#62DFAE" transform="translate(70,165)"/>
<path d="M0 0 C0.99 0.33 1.98 0.66 3 1 C2.34 1 1.68 1 1 1 C0.731875 1.61875 0.46375 2.2375 0.1875 2.875 C-1 5 -1 5 -4 7 C-3.43628586 3.73045798 -2.50037734 2.17424117 0 0 Z " fill="#89DFBE" transform="translate(370,163)"/>
<path d="M0 0 C0.99 0.33 1.98 0.66 3 1 C1.515 4.96 1.515 4.96 0 9 C-0.95904856 5.16380575 -0.91892116 3.67568464 0 0 Z " fill="#63DFAC" transform="translate(429,81)"/>
</svg>
