 <svg  version="1.0" xmlns="http://www.w3.org/2000/svg"  width="300.000000pt" height="282.000000pt" viewBox="0 0 300.000000 282.000000"  preserveAspectRatio="xMidYMid meet">  <g transform="translate(0.000000,282.000000) scale(0.100000,-0.100000)" fill="#25ef99" stroke="none"> <path d="M2805 2765 c-67 -18 -117 -19 -1095 -25 -1119 -6 -1047 -2 -1169 -64 -69 -35 -152 -121 -189 -195 -16 -32 -49 -119 -72 -193 -44 -141 -101 -310 -115 -343 -9 -22 7 -8 143 114 122 110 234 176 348 206 48 12 147 15 581 15 288 0 523 -3 523 -6 0 -3 -26 -35 -59 -72 -32 -37 -141 -161 -242 -277 -199 -228 -466 -532 -487 -554 -7 -7 -95 -106 -195 -219 -100 -113 -244 -275 -319 -360 -162 -181 -225 -263 -273 -354 -38 -71 -45 -89 -105 -263 -21 -60 -42 -119 -46 -129 -6 -17 -4 -18 22 -12 16 4 52 12 79 18 31 7 395 13 960 17 l910 6 74 29 c131 50 246 130 379 264 46 46 85 82 88 80 2 -2 10 -51 17 -109 10 -70 17 -97 22 -84 4 11 18 47 30 80 13 33 48 125 78 205 121 321 217 568 241 624 14 32 26 60 26 61 0 2 -55 -15 -122 -37 -68 -22 -184 -58 -258 -80 -412 -122 -453 -136 -435 -141 11 -3 80 -24 153 -47 l133 -41 -23 -32 c-40 -58 -142 -159 -200 -198 -144 -98 -210 -108 -720 -109 -225 0 -408 3 -408 6 0 7 81 98 290 329 81 88 274 304 430 480 157 176 305 343 331 370 121 131 448 495 480 535 56 69 113 157 157 241 41 79 115 266 110 277 -2 4 -34 -2 -73 -13z m23 -65 c-6 -19 -33 -81 -59 -138 -27 -57 -49 -107 -49 -112 0 -4 -3 -10 -7 -12 -5 -1 -21 -23 -38 -48 -63 -96 -165 -217 -178 -212 -5 1 -6 -1 -3 -6 7 -12 -94 -118 -108 -114 -6 2 -8 0 -4 -3 7 -7 -72 -103 -162 -196 -25 -26 -58 -62 -72 -79 -14 -17 -50 -57 -79 -89 -30 -32 -69 -75 -88 -97 -18 -21 -50 -57 -70 -80 -20 -22 -65 -73 -101 -114 -36 -41 -82 -91 -102 -112 -21 -21 -35 -38 -33 -38 2 0 -6 -10 -18 -23 -31 -32 -167 -183 -216 -240 -22 -27 -41 -45 -41 -40 0 4 -9 -7 -20 -25 -13 -21 -25 -30 -33 -26 -6 4 -9 4 -5 0 4 -5 -2 -18 -13 -30 -11 -11 -42 -45 -67 -75 -26 -29 -67 -75 -92 -102 -25 -26 -53 -59 -64 -73 -10 -14 -23 -23 -29 -19 -5 3 -7 1 -3 -5 3 -6 2 -13 -4 -17 -12 -8 -13 -25 -1 -43 7 -11 89 -14 445 -13 409 1 496 6 551 30 17 8 48 20 65 26 67 23 200 131 258 208 69 92 72 112 24 124 -14 3 -37 12 -51 19 -14 8 -36 14 -48 14 -13 0 -23 5 -23 10 0 6 -14 10 -31 10 -16 0 -28 4 -24 9 6 10 247 91 286 95 13 2 67 17 119 34 52 17 104 33 115 34 11 2 25 6 30 10 18 11 118 38 123 33 3 -2 -3 -20 -12 -39 -9 -19 -16 -37 -16 -40 0 -3 -9 -28 -21 -54 -32 -71 -37 -85 -45 -112 -3 -14 -14 -43 -24 -65 -29 -67 -80 -201 -85 -225 -10 -40 -111 -290 -117 -290 -2 0 -3 15 -3 33 0 37 -31 90 -50 85 -8 -2 -63 -51 -124 -110 -60 -60 -114 -108 -120 -108 -5 0 -22 -11 -37 -25 -14 -13 -39 -30 -55 -37 -16 -7 -29 -16 -29 -19 0 -3 -19 -12 -42 -19 -24 -8 -45 -17 -48 -20 -3 -4 -25 -13 -50 -20 -36 -12 -214 -15 -930 -17 -487 -1 -901 -5 -920 -9 -19 -4 -44 -8 -56 -9 -11 -1 -26 -5 -32 -9 -8 -5 -12 0 -12 14 0 23 28 118 40 135 4 6 13 31 20 58 7 26 16 47 19 47 4 0 7 10 8 22 1 11 8 25 15 29 7 5 10 9 6 9 -12 0 49 109 95 170 46 62 77 98 125 149 18 20 51 56 72 81 22 26 52 60 67 76 15 17 51 57 78 89 109 130 250 280 261 279 7 -1 10 4 8 11 -3 7 19 37 48 68 29 31 69 75 88 98 19 23 42 49 51 58 8 9 46 52 84 96 37 44 77 89 89 101 31 31 122 135 226 258 14 16 37 42 51 58 15 15 44 49 65 74 22 25 60 68 86 96 75 80 104 127 91 146 -5 9 -23 18 -39 19 -59 4 -951 2 -995 -2 -93 -9 -227 -52 -237 -77 -2 -4 -12 -8 -23 -8 -10 0 -19 -3 -19 -7 0 -9 -52 -46 -60 -43 -3 1 -28 -20 -56 -47 -74 -70 -116 -104 -122 -99 -3 3 0 11 6 19 6 7 13 26 16 41 3 16 10 34 16 40 5 5 10 22 10 36 0 14 5 31 12 38 7 7 9 12 5 12 -4 0 -3 9 3 19 5 11 12 35 14 53 10 73 79 216 141 289 26 31 81 72 125 92 101 47 98 47 1141 52 541 3 1000 7 1019 9 52 8 82 15 88 21 14 14 21 -14 10 -45z"/> </g> </svg> 